<?xml version="1.0" encoding="iso-8859-1"?>
<!-- Generator: Adobe Illustrator 19.0.0, SVG Export Plug-In . SVG Version: 6.00 Build 0)  -->
<svg version="1.1" id="Capa_1" xmlns="http://www.w3.org/2000/svg" xmlns:xlink="http://www.w3.org/1999/xlink" x="0px" y="0px"
	 viewBox="0 0 512 512" style="enable-background:new 0 0 512 512;" xml:space="preserve">
<path style="fill:#727272;" d="M7.024,315.475c-3.434,2.782-2.28,11.818-2.323,15.814c-0.052,4.925-0.641,10.3,0.647,15.081
	c0.989,3.672,1.307,7.824,3.638,10.938c1.872,2.501,4.313,5.123,6.627,7.232c5.316,4.845,12.072,8.412,18.83,10.786
	c7.467,2.623,15.371,4.154,23.285,4.423c7.855,0.267,15.605-1.806,23.465-0.91c6.514,0.742,13.021-0.103,19.534,0.573
	c4.444,0.461,8.991,0.978,13.448,1.069c4.745,0.097,9.492,0.188,14.235,0.347c3.621,0.121,6.891,1.216,10.44,1.473
	c6.367,0.462,12.943,0.05,19.23,0.605c5.558,0.491,10.918,1.221,16.563,1.341c7.09,0.15,14.415-0.329,21.521-0.571
	c8.3-0.283,16.153-0.988,24.458-0.579c7.083,0.348,14.201,0.277,21.301,0.277c22.667,0,45.271,1.457,67.921,1.457
	c7.675,0,15.407-2.25,23.008-1.303c7.569,0.943,15.555-0.248,23.195-0.423c6.19-0.142,12.148-2.283,18.347-2.584
	c5.242-0.255,10.818-0.411,16.047,0.073c4.871,0.451,9.36,2.65,14.261,3.012c9.569,0.708,20.318-0.046,29.784-1.477
	c6.518-0.985,13.09-0.568,19.715-1.665c7.543-1.25,15.623-5.007,20.426-10.906c4.548-5.585,7.781-13.962,10.491-20.732
	c2.134-5.331,3.875-11.035,5.063-16.655c0.706-3.341,2.704-9.041,1.749-12.468c-1.041-3.733-6.799-2.187-10.029-1.639
	c-7.197,1.222-14.238-0.817-21.457-1.13c-9.974-0.433-19.615,1.467-29.617,1.457c-13.252-0.013-26.46-1.457-39.739-1.457
	c-10.382,0-21.814,2.193-32.083,0.764c-9.409-1.31-18.422,0.077-27.956,0.779c-10.479,0.771-20.732-1.228-31.155-1.549
	c-7.601-0.235-15.251,0.091-22.855,0.008c-6.352-0.07-12.443-1.405-18.686-2.333c-3.981-0.592-8.17-1.601-12.206-1.738
	c-7.31-0.248-12.786,2.412-19.741-0.559c-6.967-2.977-15.221-1.886-22.565-0.992c-7.282,0.886-12.666,0-19.719-1.173
	c-9.11-1.514-17.943,1.773-27.019,1.84c-7.509,0.055-14.907,0.293-22.424,0.291c-9.751-0.002-19.419,0.873-29.164,0.874
	c-5.051,0.001-10.252-0.315-15.234,0.706c-3.625,0.743-5.962,1.941-9.521,0.569c-7.903-3.047-16.523-3.109-24.951-1.869
	c-9.26,1.363-18.548,2.415-27.949,2.05c-4.003-0.156-7.911-0.543-11.944-0.582c-1.756-0.017-3.822-0.998-5.392-0.901
	C7.719,313.291,6.891,316.507,7.024,315.475z"/>
<path style="fill:#6D6D6D;" d="M180.996,421.548c0.017,5.814,0.492,13.772,3.568,18.891c1.92,3.195,7.355,4.737,10.999,5.274
	c7.804,1.15,15.801,0.884,23.643,1.905c7.739,1.008,15.385,1.552,23.156,2.204c11.209,0.94,23.603,0.569,34.727-0.891
	c8.746-1.148,17.287-3.197,26.153-3.197c3.373,0,7.249,0.331,10.49-0.544c4.091-1.105,6.534-5.144,8.462-8.635
	c5.751-10.411,5.141-24.127,3.994-35.794c-0.385-3.918-0.565-8.367-1.303-12.201c-1.047-5.439-5.383-4.195-9.786-4.019
	c-21.096,0.843-41.878-3.964-62.866-3.794c-12.38,0.1-24.48,1.867-36.932,1.452c-8.139-0.272-16.197-0.302-24.276-1.384
	c-2.78-0.372-6.477-0.966-9.205-0.054c-2.687,0.899-1.995,1.631-1.991,5.018c0.008,8.207,0.245,16.491-0.146,24.677
	C179.525,413.786,179.82,417.036,180.996,421.548z"/>
<path style="fill:#F4F4F4;" d="M363.126,450.106c1.393,4.17,1.854,10.733-0.277,14.79c-2.883,5.488-10.996,5.14-16.268,5.835
	c-8.679,1.144-17.544,0.483-26.285,1.596c-4.905,0.625-9.332,1.585-14.285,1.163c-4.203-0.358-8.464-1.205-12.605-2.04
	c-19.937-4.021-39.721,0.511-59.819,0.511c-9.231,0-18.409,0.482-27.627,0.025c-7.812-0.388-15.644-1.191-23.457-1.191
	c-12.027,0-24.731,0.253-36.372-3.238c-3.209-0.962-8.084-2.374-9.404-5.864c-1.457-3.851,0.917-7.968,4.037-10.065
	c4.18-2.81,8.271-4.278,13.129-5.521c6.225-1.594,13.696-1.74,20.119-1.541c3.6,0.111,6.851,1.713,10.488,1.751
	c3.63,0.038,7.174,0.007,10.768,0.363c10.463,1.037,20.661,0.651,31.195,1.087c8.641,0.358,17.263,1.763,25.928,1.305
	c8.592-0.454,16.812-1.153,25.504-0.73c8.923,0.434,18.319,0.723,27.168-0.641c8.614-1.328,17.056-2.84,25.798-2.841
	c5.582,0,11.106-0.744,16.661-0.582C351.294,444.389,357.399,445.288,363.126,450.106z"/>
<path style="fill:#6D6D6D;" d="M243.94,335.582c-6.79,4.188-9.247,16.641-5.074,23.167c3.417,5.344,9.58,8.289,15.565,8.597
	c7.484,0.385,12.306-0.204,16.063-7.431c3.924-7.548,5.611-15.001,0.337-22.584c-2.276-3.272-5.553-5-9.406-5.77
	c-2.53-0.506-4.595-0.333-7.082,0.354c-1.057,0.292-2.54,0.526-3.487,1.103C249.173,334.043,248.472,335.947,243.94,335.582z"/>
<path style="fill:#F4F4F4;" d="M11.426,76.025C9.585,84.406,9.427,93.326,9,101.856c-0.539,10.763-0.912,21.534-1.457,32.297
	c-0.608,11.995-1.644,23.946-2.208,35.896c-0.258,5.459-0.058,10.971-0.058,16.438c0,7.073-0.291,14.106-0.291,21.179
	c0,11.882-0.257,23.81,0.316,35.659c0.848,17.532,0.957,35.056,0.267,52.639c-0.196,5.006-0.877,11.426,0.356,16.305
	c1.122,4.438,6.679,4.996,10.971,4.983c11.174-0.033,22.382-0.177,33.516-1.204c4.251-0.393,7.352-1.657,11.284-2.922
	c4.403-1.416,9.087-0.022,13.609,0.017c4.732,0.041,9.44-0.296,14.178-0.29c9.981,0.011,19.754-0.167,29.733,0.227
	c6.026,0.238,12.104,0.657,18.134,0.648c9.688-0.016,19.279-3.128,28.757-1.329c10.818,2.053,23.162,0.857,34.133,0.715
	c23.31-0.302,46.653-1.492,69.943,0.095c18.933,1.29,38.376,1.092,57.385,0.243c18.85-0.842,38.072-0.566,56.828,0.845
	c5.294,0.398,10.605,0.945,15.895,1.435c11.183,1.035,22.456,3.336,33.732,3.263c5.604-0.037,11.131-0.306,16.746-0.312
	c4.81-0.005,9.454-0.68,14.222-0.876c4.533-0.186,9.005,0.644,13.517,0.586c3.044-0.039,5.626,1.568,8.604,0.268
	c2.435-1.063,4.204-3.499,5.394-5.762c3.439-6.537,4.391-15.022,5.609-22.198c2.929-17.263,4.591-35.048,6.784-52.457
	c2.622-20.812,3.361-40.831,0.867-61.659c-1.109-9.268-2.074-19.802-1.023-29.094c1.022-9.035,1.312-18.134,1.904-27.202
	c0.402-6.156-1.517-11.178-1.81-17.153c-0.751-15.322,3.484-30.685-4.441-44.979c-3.219-5.806-9.902-9.611-15.591-12.524
	c-4.749-2.432-9.806-2.265-14.948-2.645c-5.964-0.44-12.168-1.685-18.121-2.528c-13.057-1.85-25.679-0.353-38.763-0.363
	c-29.601-0.023-59.161,0.873-88.69-0.647c-15.351-0.79-30.895,0.487-46.274-0.203c-7.414-0.332-14.786,0.35-22.199-0.017
	c-8.823-0.437-17.223-1.959-26.15-2.059c-9.055-0.102-18.079-0.779-27.123-0.308c-7.542,0.393-15.111,0.918-22.67,0.901
	c-14.078-0.032-28.262-1.097-42.321-0.071c-13.108,0.957-25.91,4.3-39.089,5.04c-10.712,0.601-22.168,2.231-32.86,1.745
	c-9.596-0.436-18.951-0.987-28.264,1.744c-3.583,1.051-7.277,1.418-10.271,3.841c-2.409,1.949-4.607,4.594-6.624,6.937
	C15.58,62.634,12.937,69.148,11.426,76.025z"/>
<path style="fill:#727272;" d="M77.157,88.37c-0.028,9.715-0.972,19.386-1.457,29.088c-0.907,18.138,0.33,36.223-0.078,54.342
	c-0.343,15.195-1.929,30.328-1.96,45.519c-0.028,13.878-0.574,27.488,0.095,41.408c0.361,7.498-0.902,20.873,3.469,27.544
	c3.013,4.599,10.97,3.944,15.929,4.54c9.603,1.153,19.343,1.775,28.998,2.41c12.723,0.836,24.205,1.683,37.015,0.766
	c13.58-0.972,27.194-0.899,40.781-1.736c18.075-1.114,37.805,3.328,55.094-1.851c1.37-17.972-0.072-36.294,0.65-54.364
	c1.098-27.459-0.984-54.959-0.971-82.418c0.011-24.803,1.758-50.402-0.884-75.063c-0.333-3.11-0.374-7.516-3.237-8.853
	c-3.45-1.611-11.638,0.144-15.229,0.455c-7.639,0.661-15.242,1.03-22.877,1.601c-13.637,1.02-26.746,3.076-40.454,3.013
	c-13.754-0.063-27.468,1.746-41.237,1.132c-10.983-0.489-21.954,0.032-32.942,0.436C92.193,76.548,78.033,75.801,77.157,88.37z"/>
<path style="fill:#14DDF7;" d="M430.733,77.491c-17.312,0.638-36.054-2.953-53.196-5.148c-18.355-2.35-37.101-3.398-55.595-3.4
	c-22.562-0.002-45.115,1.11-67.568,2.39c0.528,26.365,0.48,53.124-0.838,79.534c-1.628,32.635,1.753,65.548,0.801,98.23
	c-0.411,14.097-1.419,28.322-0.722,42.444c2.793-0.511,6.533,0.311,9.612,0.423c7.349,0.269,14.702,0.479,22.057,0.772
	c15.551,0.62,31.267,1.028,46.801,2.448c14.95,1.366,29.713,2.277,44.667,2.98c11.163,0.525,22.092-0.367,33.215-0.369
	c4.984-0.001,16.56,1.22,20.396-3.012c1.781-1.965,1.015-5.207,1.132-7.773c0.29-6.336,0.675-12.726,1.18-19.062
	c2.59-32.485,3.142-65.382,2.729-98.027c-0.207-16.353-0.9-32.784-0.406-49.162c0.286-9.478,0.802-19.027,0.794-28.511
	c-0.004-4.638,0.139-9.952-1.245-14.338C434.01,78.034,433.553,78.32,430.733,77.491z"/>
<g>
	<path style="fill:#008EE5;" d="M300.57,98.861c44.882,0,89.399,6.232,134.378,3.827c0.286-5.691,1.958-18.454-1.79-22.961
		c-2.499-3.005-11.926-1.903-15.637-2.225c-10.494-0.91-20.948-2.465-31.415-3.498c-34.575-3.414-69.733-3.118-104.544-3.118
		c-8.763,0-17.659-0.386-26.393,0.06c-0.496,9.385,0.819,19.302,1.166,28.633C270.009,99.62,285.114,93.908,300.57,98.861z"/>
	<path style="fill:#008EE5;" d="M255.888,123.825c0.005,12.969-0.236,26.073,0.579,39.032c0.192,3.056-0.202,3.798,2.179,4.668
		c3.099,1.133,7.309,0.136,10.561,0.287c13.069,0.608,26.274-0.005,39.325-0.887c6.697-0.453,13.547-0.309,20.223-0.911
		c4.221-0.381,9.937-0.693,11.316-5.434c1.102-3.787,0.148-8.384,0.318-12.286c0.22-5.053,0.598-10.111,0.59-15.179
		c-0.006-3.835,1.217-11.354-3.778-12.191c-3.27-0.548-8.207,0.743-11.645,0.854c-5.925,0.191-11.836,0.298-17.779,0.298
		c-10.991,0-21.957-0.725-32.887-1.181c-5.863-0.244-11.803-0.55-17.503,0.351C257.349,123.055,257.254,124.927,255.888,123.825z"/>
	<path style="fill:#008EE5;" d="M255.305,249.714c-1.152,3.705-0.251,8.528-0.437,12.399c-0.113,2.353-1.3,7.494,0.864,9.286
		c1.324,1.097,4.487,0.635,6.057,0.755c3.755,0.285,7.525,0.393,11.292,0.606c7.813,0.443,15.591-0.426,23.385-0.834
		c6.502-0.341,12.914-0.124,19.45-0.421c3.784-0.172,7.821-0.437,11.513-1.076c4.915-0.85,5.348-1.857,6.856-6.822
		c0.969-3.191,2.901-8.787-0.002-11.577c-1.61-1.547-5.354-1.566-7.403-1.708c-4.378-0.304-8.772-0.797-13.155-1.045
		c-11.612-0.656-23.095,0.449-34.706,0.152c-4.99-0.128-9.96-0.549-14.935-0.59C261.603,248.819,256.068,247.352,255.305,249.714z"
		/>
	<path style="fill:#008EE5;" d="M385.856,230.772c-5.167-1.375-10.748-1.161-16.107-1.166c-4.302-0.004-7.32-0.345-9.545,3.71
		c-4.885,8.901-6.587,22.628-3.708,32.44c2.972,10.131,10.303,12.283,20.151,13.115c12.757,1.077,31.777,4.044,38.03-10.138
		c3.802-8.624,4.797-21.958,2.738-31.126c-0.866-3.855-2.48-5.836-6.377-6.777C403.852,229.094,394.258,228.385,385.856,230.772z"/>
</g>
<path style="fill:#FF3535;" d="M87.827,59.119c-2.265,0.108-4.539,3.124-5.757,4.7c-2.175,2.814-5.263,7.915-2.822,11.439
	c1.934,2.792,6.294,2.507,9.29,2.667c3.388,0.181,7.017-0.035,10.286-1.024c1.014-0.307,2.337-0.496,2.723-1.5
	c0.79-2.056-0.207-5.426-0.387-7.532c-0.151-1.772-0.346-3.524-0.64-5.28c-0.145-0.865-0.212-2.312-0.779-3.038
	c-0.542-0.692-1.659-0.904-2.438-1.148C94.437,57.5,92.387,58.346,87.827,59.119z"/>
<path style="fill:#FF8225;" d="M126.882,61.975c-0.405-1.268-0.577-3.687-1.901-4.363c-1.515-0.774-4.331-0.112-5.895,0.179
	c-1.456,0.271-2.698,0.007-4.213,0.186c-1.767,0.209-3.518,0.533-5.286,0.736c-2.747,0.316-6.043,0.121-8.683,1.02
	c-0.541,0.184-0.654,0.015-0.813,0.507c-0.227,0.705,0.547,2.695,0.634,3.464c0.401,3.539,0.397,7.335,1.4,10.775
	c0.874,2.996,3.156,2.124,5.781,1.958c4.644-0.294,9.179-0.334,13.826-0.131c1.879,0.082,5.629,0.643,7.317-0.534
	c1.151-0.802,0.213-2.997,0.032-4.182C128.582,68.316,127.889,65.127,126.882,61.975z"/>
<path style="fill:#FFDC0F;" d="M149.743,58.813c0,2.827,0,5.655,0,8.482c0,1.467,0.046,2.942-0.023,4.408
	c-0.035,0.748,0.095,2.078-0.376,2.728c-0.829,1.146-3.801,1.128-4.984,1.22c-1.507,0.117-3.025,0.042-4.531,0.137
	c-1.862,0.118-3.677,0.588-5.524,0.81c-1.398,0.167-2.784,0.147-4.185,0.219c-0.442,0.023-1.993,0.391-2.38,0.14
	c-0.681-0.442,0.038-3.918,0.036-4.684c-0.01-3.301-0.795-6.485-1.732-9.63c-0.33-1.105-1.328-3.826-0.673-4.955
	c0.506-0.873,3.662-0.689,4.659-0.82c2.21-0.29,4.431-0.306,6.656-0.303c2.851,0.003,5.83-0.247,8.664,0.102
	C147.564,56.939,149.743,56.108,149.743,58.813z"/>
<path style="fill:#B2B2B2;" d="M187.698,55.344c-5.72-1.541-13.047,0.291-18.956,0.291c-5.015,0.001-10.262-0.063-15.162,0.889
	c-3.904,0.759-3.253,2.3-2.956,6.455c0.223,3.104-0.276,11.292,2.842,12.446c1.699,0.629,5.339-0.628,7.123-0.847
	c4.936-0.608,9.933-0.694,14.894-0.939c10.781-0.533,21.477-1.793,32.218-2.922c21.458-2.257,43.215-1.96,64.757-2.615
	c23.529-0.715,46.958-0.769,70.374,1.458c21.461,2.041,42.879,3.896,64.328,5.592c7.075,0.56,14.211,0.83,21.275,1.465
	c4.299,0.386,8.363-0.527,7.047-6.067c-3.322-13.992-17.38-15.109-29.31-15.724c-33.597-1.732-67.368,0.227-101.042,0.227
	C266.357,55.052,227.637,55.052,187.698,55.344z"/>
<path d="M511.935,129.287c-0.18-16.684-1.363-33.49-2.334-50.164c-0.567-9.724-1.157-21.634-8.807-28.788
	c-9.449-8.837-25.833-12.572-38.142-13.756c-15.4-1.48-31.15-2.496-46.631-2.68c-27.82-0.331-55.618,1.075-83.414,0.932
	c-27.655-0.142-55.31-1.559-82.983-1.558c-61.199,0.002-121.986,1.646-183.081,4.635C43.697,39.026,18.052,42.229,9.706,66.6
	C5.42,79.113,4.887,94.888,3.687,108.084c-1.23,13.522-2.572,26.96-3.064,40.549c-2.031,56.02,1.606,112.012,1.042,168.096
	c-0.127,12.623,0.513,26.221,2.453,38.722c1.874,12.072,8.066,18.544,19.11,23.201c24.729,10.427,56.527,8.71,82.871,8.898
	c23.554,0.169,47.101,0.473,70.648,0.8c-1.286,12.961-1.641,26.375-1.008,39.27c0.268,5.467,0.658,10.384,3.045,14.526
	c-2.712-0.269-5.423-0.51-8.133-0.679c-10.669-0.666-24.317-0.164-31.9,8.79c-6.503,7.68-3.872,19.353,4.966,23.449
	c12.63,5.853,29.355,5.007,42.915,4.943c37.008-0.174,74.127-1.402,111.117-1.084c17.784,0.153,37.538,2.506,55.063-0.616
	c10.541-1.878,20.201-7.981,16.847-20.098c-4.023-14.535-21.406-16.14-33.976-15.53c-2.28,0.111-4.536,0.247-6.783,0.399
	c3.733-5.709,4.282-12.429,4.318-19.907c0.049-10.167,0.897-21.537-0.545-31.963c16.748-0.033,33.5,0.009,50.18,0.607
	c24.85,0.89,56.654,6.04,79.981-4.645c24.626-11.28,30.681-38.024,36.049-62.104c6.592-29.567,9.107-60.937,10.544-91.154
	C511.054,198.337,512.305,163.531,511.935,129.287z M348.865,451.273c3.366,1.016,10.973,3.173,10.797,7.958
	c-0.047,1.285-0.863,2.404-1.713,3.369c-5.643,6.408-10.257,5.277-18.125,5.283c-32.926,0.026-65.794,0.435-98.717,0.459
	c-16.258,0.012-32.475,0.067-48.721,0.545c-11.8,0.348-31.968,3.015-42.469-3.219c-12.343-7.327,2.989-13.568,10.097-14.428
	c16.407-1.985,32.993,0.804,49.214,3.102c15.736,2.229,31.568,2.297,47.436,2.023c12.427-0.215,24.931,0.257,37.326-0.483
	C311.935,454.809,330.753,446.599,348.865,451.273z M184.695,388.459c36.123,0.512,72.245,1.072,108.383,1.376
	c9.438,0.08,18.896,0.063,28.361,0.038c0.197,6.918,0.714,13.88,0.837,20.79c0.23,12.912,2.83,26.056-11.867,31.452
	c-16.655,6.115-38.033,3.404-55.655,3.643c-18.433,0.25-37.864,0.724-55.791-4.122c-8.505-2.299-11.209-3.581-12.547-12.337
	c-0.572-3.742-0.497-7.565-0.602-11.337C185.54,408.137,185.545,398.261,184.695,388.459z M486.416,329.455
	c-3.06,13.094-6.18,27.532-15.694,37.672c-19.003,20.254-53.076,12.674-77.771,12.711c-21.672,0.032-43.434-0.769-65.129-0.542
	c-0.904-0.226-1.866-0.217-2.771,0.028c-3.884,0.057-7.767,0.14-11.645,0.281c-54.401,1.973-109.227-2.004-163.672-1.972
	c-27.979,0.016-55.956-0.767-83.909-1.938c-12.973-0.543-28.646-1.346-40.47-7.417c-14.475-7.433-12.228-25.582-13.112-39.627
	c-0.143-2.271-0.238-4.553-0.341-6.833c15.6,1.527,31.776-1.361,47.334-2.214c19.738-1.082,39.445-1.154,59.208-1.104
	c22.318,0.056,44.636-0.048,66.953,0.019c21.017,0.062,41.877,2.588,62.88,3.036c41.571,0.886,83.141,0.502,124.694,1.961
	c20.794,0.729,41.574,0.621,62.382,0.174c17.477-0.375,35.009,0.674,52.426-0.528C487.329,325.258,486.907,327.354,486.416,329.455z
	 M499.312,203.815c-0.102,27.058-2.515,53.81-5.369,80.69c-0.809,7.626-0.067,25.961-7.311,29.548
	c-6.265,3.102-16.334,0.046-23.055,0.07c-9.408,0.036-18.818-0.119-28.224,0.116c-20.803,0.52-41.59,0.628-62.382-0.065
	c-40.845-1.362-81.723-1.178-122.59-1.726c-20.217-0.271-40.323-2.861-60.539-2.932c-22.298-0.079-44.599,0.148-66.897,0.203
	c-19.868,0.05-39.716,0.001-59.555,1.162c-17.154,1.004-34.563,3.792-51.771,3.339c-0.644-22.267,0.143-44.854-0.048-66.998
	c-0.206-23.881-1.99-47.701-1.984-71.591c0.007-23.985,1.577-47.742,4.108-71.584c1.312-12.366,1.76-30.96,9.309-41.361
	c8.775-12.09,29.806-13.309,43.538-14.087c61.034-3.46,121.922-5.694,183.081-6.154c51.446-0.387,102.638,3.054,154.115,1.402
	c24.48,1.167,51.587-1.16,74.809,7.003c5.618,1.975,13.799,5.166,17.044,10.732c2.912,4.994,2.848,11.992,3.143,17.54
	c0.737,13.867,1.388,27.7,2.21,41.549C502.581,148.283,499.415,176.184,499.312,203.815z"/>
<path d="M257.89,329.279c-5.152-0.374-8.642,1.886-12.273,4.363c-1.936,0.87-3.711,2.019-5.281,3.399
	c-0.033,0.033-0.075,0.059-0.103,0.094c-5.062,4.51-7.888,11.389-6.349,18.882c2.528,12.306,20.391,21.406,31.398,14.607
	c10.845-6.699,16.258-21.199,8.866-32.576C270.704,332.747,264.159,329.734,257.89,329.279z M265.857,361.382
	c-3.679,3.586-7.577,5.769-12.878,4.541c-4.603-1.066-10.007-4.574-12.522-8.712c-4.783-7.87,0.423-14.658,7.13-19.082
	c4.284-1.453,8.257-3.407,13.484-1.541C271.488,340.306,273.623,353.813,265.857,361.382z"/>
<path d="M438.218,87.587c-0.812-10.568,1.88-21.702-5.938-30.763c-6.519-7.553-23.222-5.274-31.943-5.543
	c-29.868-0.921-59.898,1.969-89.857,1.126c-64.117-1.804-128.75-0.072-192.828,2.242c-6.958,0.251-13.916,0.689-20.867,1.031
	c-4.402,0.217-9.852-0.516-13.974,1.243c-4.685,2-6.817,6.347-7.743,11.107c-1.239,6.374-1.915,14.613-1.066,21.434
	c-1.052,4.751-1.343,10.09-1.742,15.32c-3.429,44.977-1.359,90.428-1.704,135.509c-0.084,10.949-0.136,22.2,0.566,33.122
	c0.39,6.072,0.092,12.463,5.477,16.382c4.639,3.376,11.523,3.602,17.033,3.986c10.994,0.766,22.113,0.509,33.135,0.518
	c43.408,0.036,86.84,1.682,130.248,1.883c11.748,0.054,23.497,1.08,35.249,1.278c11.292,0.19,22.69-0.933,33.938-0.12
	c22.964,1.66,46.238,4.901,69.285,3.93c10.78-0.454,33.134,4.722,39.077-8.26c3.136-6.852,2.995-17.699,3.215-25.101
	c0.32-10.738,0.474-21.436,0.499-32.184c0.003-1.286,0.007-2.573,0.013-3.859c0.142-32.088,1.122-64.167,1.055-96.256
	c-0.032-15.81,0.093-31.795-1.094-47.571C438.242,87.889,438.23,87.738,438.218,87.587z M431.393,100.121
	c-29.45,0.065-59.138-0.998-88.556-2.282c-17.862-0.78-35.732-2.038-53.617-2.287c-9.269-0.129-19.065-0.35-28.223,1.284
	c-0.664,0.118-1.344,0.197-2.007,0.299c-0.1-8.231-0.34-16.442-0.964-24.46c11.324-0.25,22.683-0.206,34.107,0.277
	c22.845,0.966,45.673,1.744,68.507,3.031c14.712,0.829,29.445,1.498,44.1,3.083c6.607,0.715,13.914,0.987,20.32,2.132
	c6.391,1.143,5.79,5.996,6.035,11.346C431.211,95.072,431.295,97.596,431.393,100.121z M252.969,58.844
	c33.239,0.316,66.455-0.046,99.686,0.131c15.283,0.082,30.536-1.308,45.793-1.158c8.627,0.085,25.381-1.681,30.339,6.79
	c5.941,10.149-2.935,9.748-10.229,9.137c-10.633-0.891-21.313-1.07-31.943-2.001c-12.985-1.137-25.997-1.945-39.01-2.668
	c-17.029-0.945-34.07-1.667-51.11-2.387c-47.364-1.997-93.423,3.028-140.57,5.79c-0.653,0.038-1.307,0.071-1.96,0.109
	c-0.083-2.234-0.534-4.613-0.741-6.761c-0.215-2.23-0.415-4.553-0.873-6.779C185.889,58.281,219.426,58.526,252.969,58.844z
	 M257.766,250.18c11.624,2.2,24.072,1.819,35.783,2.089c6.575,0.151,13.059-0.045,19.633-0.07
	c6.792-0.026,20.647-2.234,20.181,7.868c-0.585,12.702-31.267,8.666-39.828,8.87c-6.767,0.161-13.477,0.278-20.253,0.147
	c-3.249-0.063-12.111,1.009-14.831-0.196c-0.289-0.128-0.567-0.181-0.842-0.227C257.689,262.469,257.691,256.275,257.766,250.18z
	 M148.062,59.125c0.032-0.001,0.063-0.001,0.095-0.002c-0.304,2.404-0.14,4.874-0.263,7.29c-0.115,2.273-0.215,4.353-0.048,6.517
	c-5.776,0.318-11.555,0.613-17.334,0.803c-0.313-1.883-0.206-4.034-0.391-5.795c-0.297-2.829-1.478-5.266-2.335-7.901
	C134.545,59.642,141.305,59.297,148.062,59.125z M107.73,61.243c5.645-0.317,11.297-0.677,16.951-1.018
	c0.069,3.607,0.384,7.301,0.53,10.887c0.038,0.938,0.009,1.87,0.054,2.764c-6.654,0.115-13.455-0.361-20.219-0.542
	c-0.19-1.963-0.932-4.092-1.256-5.696c-0.4-1.981-0.215-4.434-0.959-6.355C104.555,61.311,106.222,61.328,107.73,61.243z
	 M82.37,70.097c1.121-2.742,4.803-6.915,7.722-7.851c2.59-0.828,5.696-1.001,8.818-1.007c-0.251,2.453-0.494,4.542-0.146,7.08
	c0.224,1.638,0.402,3.308,0.675,4.953c-3.101,0.029-6.183,0.173-9.227,0.535C86.09,74.295,79.634,76.792,82.37,70.097z
	 M252.401,183.433c-0.199,19.288-0.649,38.706-1.247,58.003c-0.487,15.708-0.066,32.111-1.429,47.782
	c-0.003,0.005-0.007,0.01-0.01,0.015c-29.787-0.666-59.614-0.825-89.394-1.048c-17.969-0.134-36.071-0.499-54.032-1.044
	c-10.922-0.331-24.629,1.565-28.079-11.636c-2.266-8.669-0.505-20.039-0.672-29.028c-0.724-38.967-1.02-78.443,0.086-117.411
	c0.246-8.68,0.934-17.358,1.685-26.007c0.388-4.472,0.339-11.505,2.33-15.65c3.374-7.022,10.591-6.813,17.129-6.803
	c19.731,0.03,39.25-0.212,58.951-1.559c31.577-2.159,62.764-5.222,94.186-6.202c-2.428,17.188-0.054,35.364,0.23,52.549
	C252.452,144.714,252.6,164.11,252.401,183.433z M431.639,207.091c-0.409,17.983-0.4,36.002-1.059,53.964
	c-0.433,11.809,2.659,30.987-13.386,33.161c-7.564,1.025-15.728-0.26-23.393,0.016c-20.629,0.744-41.62-1.82-62.163-3.486
	c-18.78-1.523-37.831-0.189-56.7-0.83c-6.054-0.206-12.115-0.34-18.174-0.493c0.391-4.787,0.598-9.662,0.724-14.563
	c3.905,1.483,10.189,0.408,13.641,0.504c10.132,0.283,20.152-0.292,30.282-0.389c9.532-0.092,34.568,4.223,37.307-7.989
	c4.002-17.842-6.219-20.29-21.182-20.476c-10.373-0.129-20.741,0.139-31.118,0.077c-3.051-0.018-24.779-1.041-28.594-0.103
	c0.004-0.233,0.006-0.469,0.011-0.701c0.416-20.136,1.268-40.316,1.547-60.439c0.068-4.931,0.095-9.866,0.095-14.803
	c20.161-1.83,40.382-0.142,60.518-2.103c5.705-0.556,17.403-0.299,21.38-4.698c4.508-4.987,1.749-18.053,1.866-24.178
	c0.12-6.289,2.362-16.494-3.95-20.273c-3.33-1.993-9.067-0.136-12.679-0.02c-5.004,0.16-10.093,0.246-15.094,0.141
	c-12.149-0.256-24.294-0.736-36.445-0.937c-3.898-0.064-10.728-0.965-16.003-0.142c-0.007-5.706-0.01-11.476-0.051-17.247
	c3.728-1.241,16.608-0.313,18.932-0.357c8.537-0.159,17.087,0.197,25.612,0.597c15.219,0.714,30.426,1.482,45.648,2.107
	c27.371,1.124,55.025,2.56,82.417,2.691C432.753,139.764,432.405,173.366,431.639,207.091z M337.098,157.058
	c-1.632,3.4-3.363,2.952-7.2,3.609c-9.054,1.551-18.3,1.918-27.456,2.345c-14.356,0.67-28.611-0.515-42.995,0.791
	c-0.054-12.075-0.22-24.156-0.336-36.212c-0.017-1.792-0.024-3.601-0.031-5.411c5.351-0.501,14.193,1.039,18.1,1.128
	c7.71,0.176,15.406,0.411,23.116,0.672c8.766,0.296,17.542,0.58,26.316,0.333c6.105-0.172,10.065-3.251,11.343,6.215
	c0.531,3.931-0.599,8.848-0.71,12.825C337.151,146.707,338.514,154.109,337.098,157.058z"/>
<path d="M101.092,135.336c3.239,3.072,7.307,7.893,11.755,8.897c3.183,0.718,5.033-2.858,3.048-5.236
	c-2.367-2.835-5.537-4.871-8.27-7.33c-1.5-1.35-2.926-2.8-4.367-4.212c-0.98-0.961-3.353-2.313-2.747-3.924
	c0.951-2.532,5.529-4.714,7.434-6.768c1.918-2.068,3.597-4.938,5.57-6.799c2.1-1.981-0.586-5.347-3.046-3.948
	c-4.213,2.397-7.607,6.27-10.953,9.713c-2.314,2.38-7.665,5.698-7.105,9.696C92.943,129.229,98.561,132.934,101.092,135.336z"/>
<path d="M127.466,143.341c5.038-5.892,6.878-15.239,10.259-22.222c3.492-7.212,10.083-14.693,11.719-22.563
	c0.85-4.089-4.909-5.687-6.252-1.724c-2.873,8.477-9.033,16.079-12.548,24.388c-2.6,6.146-7.138,13.866-6.443,20.768
	C124.35,143.468,126.282,144.726,127.466,143.341z"/>
<path d="M164.492,127.42c-1.853,2.899-6.136,6.101-7.96,7.911c-2.622,2.603-5.702,5.107-7.475,8.415
	c-1.026,1.913,0.294,3.823,2.312,4.029c4.731,0.482,8.874-6.065,11.815-9.114c2.608-2.705,9.4-7.575,9.015-12.037
	c-0.298-3.455-4.822-5.992-7.336-7.79c-4.033-2.885-8.404-8.08-13.456-9.086c-0.791-0.157-1.807,0.219-1.972,1.119
	C148.159,117.837,159.112,122.847,164.492,127.42z"/>
<path d="M107.625,240.654c-1.5-1.35-2.926-2.8-4.367-4.212c-0.98-0.96-3.353-2.313-2.747-3.924c0.951-2.532,5.529-4.714,7.434-6.768
	c1.918-2.069,3.597-4.938,5.57-6.799c2.1-1.981-0.586-5.347-3.046-3.948c-4.213,2.397-7.607,6.27-10.953,9.713
	c-2.314,2.38-7.665,5.698-7.105,9.695c0.532,3.806,6.15,7.511,8.681,9.912c3.239,3.072,7.307,7.894,11.755,8.897
	c3.183,0.718,5.033-2.858,3.048-5.236C113.528,245.149,110.358,243.113,107.625,240.654z"/>
<path d="M143.192,205.82c-2.873,8.477-9.033,16.079-12.548,24.388c-2.6,6.146-7.138,13.866-6.443,20.768
	c0.149,1.479,2.081,2.736,3.265,1.352c5.038-5.892,6.878-15.239,10.259-22.222c3.492-7.212,10.083-14.693,11.719-22.563
	C150.294,203.455,144.535,201.857,143.192,205.82z"/>
<path d="M164.863,227.821c-4.033-2.885-8.404-8.08-13.456-9.086c-0.791-0.157-1.807,0.219-1.972,1.119
	c-1.275,6.969,9.677,11.979,15.057,16.552c-1.853,2.899-6.136,6.101-7.96,7.911c-2.622,2.604-5.702,5.107-7.475,8.415
	c-1.026,1.913,0.294,3.823,2.312,4.029c4.731,0.482,8.874-6.065,11.815-9.114c2.608-2.705,9.4-7.575,9.015-12.037
	C171.901,232.156,167.377,229.62,164.863,227.821z"/>
<path d="M109.851,171.04c1.579-0.692,7.808-2.162,9.29-0.708c1.81,1.776,4.484-0.461,3.404-2.626
	c-2.497-5.007-10.495-4.678-14.902-3.024c-5.572,2.09-10.242,7.283-11.337,13.175c-2.441,13.134,17.334,20.356,25.511,11.126
	c1.218-1.375,0.423-3.692-1.533-3.7c-3.444-0.014-6.49,1.432-9.97,0.867c-3.802-0.617-7.94-2.463-7.321-6.949
	C103.503,175.515,106.569,172.477,109.851,171.04z"/>
<path d="M137.987,168.379c-5.526,1.77-10.33,6.025-10.562,12.149c-0.314,8.287,6.554,15.206,14.984,13.793
	c3.936-0.66,8.933-2.751,10.834-6.432c2.112-4.087,2.274-8.896,0.602-13.128C150.9,167.307,145.192,166.071,137.987,168.379z
	 M142.058,187.968c-4.33,1.083-8.072-1.654-8.785-5.955c-0.664-4.008,1.74-7.578,5.284-9.277c4.678-2.243,7.437-0.505,9.444,4.021
	C150.344,182.045,147.321,186.653,142.058,187.968z"/>
<path d="M189.701,142.031c-0.974-3.402-5.614-2.482-5.902,0.799c-0.687,7.828-0.527,16.135-0.703,24.015
	c-0.02,0.892-0.056,1.815-0.097,2.751c-0.093-0.094-0.175-0.195-0.271-0.287c-10.876-10.349-28.036,7.244-22.337,19.186
	c4.576,9.589,17.118,7.343,24.066,1.976c5.703-4.406,5.827-12.598,5.766-19.148C190.135,161.908,192.325,151.197,189.701,142.031z
	 M175.653,189.015c-4.66,1.715-12.228,0.028-11.679-6.385c0.353-4.128,5.911-10.93,10.175-11.128
	c2.523-0.116,4.647,1.587,5.931,3.611C183.491,180.484,181.808,186.75,175.653,189.015z"/>
<path d="M220.984,187.587c-4.74,0.921-9.64,1.055-13.918-1.544c-0.614-0.373-1.146-0.83-1.608-1.343
	c2.029-0.024,4.252-0.733,5.871-1.218c4.01-1.201,8.402-3.3,9.957-7.498c3.5-9.45-7.399-13.666-14.777-11.018
	c-7.989,2.867-11.975,14.277-7.638,21.616c4.393,7.433,16.945,10.362,24.177,5.899C225.71,190.837,223.92,187.017,220.984,187.587z
	 M206.396,171.922c3.428-2.89,13.115-1.394,7.752,3.885c-2.883,2.838-7.204,2.903-10.647,4.545
	C203.026,177.314,203.959,173.976,206.396,171.922z"/>
<path d="M344.185,182.708c-12.298-1.092-24.932-0.68-37.267-0.687c-12.582-0.007-26.865,1.924-39.279,0.25
	c-3.172-0.428-4.564,3.848-1.356,4.918c11.219,3.74,26.711,1.415,38.386,1.435c11.977,0.021,28.735,3.28,40.13-1.372
	C347.205,186.269,346.887,182.947,344.185,182.708z"/>
<path d="M344.185,197.861c-12.298-1.092-24.932-0.68-37.267-0.687c-12.582-0.007-26.865,1.924-39.279,0.25
	c-3.172-0.428-4.564,3.848-1.356,4.917c11.219,3.74,26.711,1.415,38.386,1.435c11.977,0.021,28.735,3.28,40.13-1.372
	C347.205,201.423,346.887,198.101,344.185,197.861z"/>
<path d="M344.185,213.014c-12.298-1.092-24.932-0.68-37.267-0.687c-12.582-0.007-26.865,1.924-39.279,0.25
	c-3.172-0.428-4.564,3.848-1.356,4.917c11.219,3.74,26.711,1.415,38.386,1.435c11.977,0.021,28.735,3.28,40.13-1.372
	C347.205,216.576,346.887,213.254,344.185,213.014z"/>
<path d="M344.185,228.167c-12.298-1.092-24.932-0.68-37.267-0.687c-12.582-0.007-26.865,1.924-39.279,0.25
	c-3.172-0.428-4.564,3.848-1.356,4.918c11.219,3.74,26.711,1.414,38.386,1.435c11.977,0.021,28.735,3.28,40.13-1.372
	C347.205,231.729,346.887,228.407,344.185,228.167z"/>
<path d="M357.814,126.866c8.372,3.74,19.934,1.414,28.646,1.435c8.938,0.021,21.444,3.28,29.948-1.372
	c1.795-0.982,1.558-4.304-0.459-4.544c-9.178-1.092-18.606-0.68-27.811-0.687c-9.389-0.007-20.048,1.924-29.313,0.25
	C356.459,121.521,355.42,125.797,357.814,126.866z"/>
<path d="M357.814,142.02c8.372,3.74,19.934,1.415,28.646,1.435c8.938,0.021,21.444,3.28,29.948-1.372
	c1.795-0.982,1.558-4.304-0.459-4.544c-9.178-1.092-18.606-0.68-27.811-0.687c-9.389-0.007-20.048,1.924-29.313,0.25
	C356.459,136.674,355.42,140.95,357.814,142.02z"/>
<path d="M357.814,157.173c8.372,3.74,19.934,1.415,28.646,1.435c8.938,0.021,21.444,3.28,29.948-1.372
	c1.795-0.982,1.558-4.304-0.459-4.543c-9.178-1.092-18.606-0.68-27.811-0.687c-9.389-0.007-20.048,1.924-29.313,0.25
	C356.459,151.827,355.42,156.103,357.814,157.173z"/>
<path d="M357.814,172.326c8.372,3.74,19.934,1.414,28.646,1.435c8.938,0.021,21.444,3.28,29.948-1.372
	c1.795-0.982,1.558-4.304-0.459-4.543c-9.178-1.092-18.606-0.68-27.811-0.687c-9.389-0.007-20.048,1.924-29.313,0.25
	C356.459,166.981,355.42,171.257,357.814,172.326z"/>
<path d="M357.814,187.188c8.372,3.74,19.934,1.415,28.646,1.435c8.938,0.021,21.444,3.28,29.948-1.372
	c1.795-0.982,1.558-4.304-0.459-4.544c-9.178-1.092-18.606-0.68-27.811-0.687c-9.389-0.007-20.048,1.924-29.313,0.25
	C356.459,181.843,355.42,186.118,357.814,187.188z"/>
<path d="M357.814,202.05c8.372,3.74,19.934,1.415,28.646,1.435c8.938,0.021,21.444,3.28,29.948-1.372
	c1.795-0.982,1.558-4.304-0.459-4.543c-9.178-1.092-18.606-0.68-27.811-0.687c-9.389-0.007-20.048,1.924-29.313,0.25
	C356.459,196.704,355.42,200.98,357.814,202.05z"/>
<path d="M357.814,216.912c8.372,3.74,19.934,1.414,28.646,1.435c8.938,0.021,21.444,3.28,29.948-1.372
	c1.795-0.982,1.558-4.304-0.459-4.543c-9.178-1.092-18.606-0.68-27.811-0.687c-9.389-0.007-20.048,1.924-29.313,0.25
	C356.459,211.566,355.42,215.842,357.814,216.912z"/>
<path d="M415.246,229.713c-6.591-4.625-18.751-3.77-28.245-2.52c-4.612-0.285-9.111-0.467-13.133-0.697
	c-8.091-0.463-15.155,0.193-18.507,8.082c-4.06,9.557-3.557,25.52-1.086,35.221c2.215,8.692,9.368,10.419,17.464,11.66
	c10.805,1.656,24.349,3.184,34.876-0.114c9.662-3.027,11.762-10.912,12.843-20.268C420.362,253.266,423.072,235.206,415.246,229.713
	z M413.209,263.849c-3.197,14.547-15.345,13.541-27.572,12.977c-5.591-0.258-12.932,0.128-18.098-2.093
	c-11.403-4.902-14.271-39.729,0.673-42.461c7.706-1.409,16.854,1.399,24.541,1.778c5.035,0.248,10.921-1.393,15.818,0.118
	c3.419,1.055,4.619,4.544,5.355,7.933C415.44,249.073,414.73,256.93,413.209,263.849z"/>
<g>
</g>
<g>
</g>
<g>
</g>
<g>
</g>
<g>
</g>
<g>
</g>
<g>
</g>
<g>
</g>
<g>
</g>
<g>
</g>
<g>
</g>
<g>
</g>
<g>
</g>
<g>
</g>
<g>
</g>
</svg>
