<?xml version="1.0" encoding="iso-8859-1"?>
<!-- Generator: Adobe Illustrator 19.0.0, SVG Export Plug-In . SVG Version: 6.00 Build 0)  -->
<svg version="1.1" id="Capa_1" xmlns="http://www.w3.org/2000/svg" xmlns:xlink="http://www.w3.org/1999/xlink" x="0px" y="0px"
	 viewBox="0 0 512 512" style="enable-background:new 0 0 512 512;" xml:space="preserve">
<path style="fill:#F4F4F4;" d="M55.198,28.131c-7.303,0.269,1.534,134.38,1.89,151.245c1.072,50.793,1.26,101.325,1.26,152.178
	c0,26.066-0.695,52.394,2.028,78.23c1.221,11.582-0.528,34.542,10.651,41.587c7.849,4.947,20.339,5.356,29.255,5.701
	c15.117,0.586,30.248,1.114,45.336,2.522c18.61,1.736,37.046-0.678,55.277,1.747c19.001,2.528,38.247,0.364,57.295-0.348
	c17.524-0.654,35.042-1.129,52.548-2.472c14.267-1.095,28.51-3.335,42.751-4.491c8.506-0.69,16.426-2.102,21.733-9.556
	c9.448-13.27,5.453-32.725,6.991-47.745c3.318-32.402,2.461-64.525,4.348-97.257c1.723-29.895-0.18-59.626-0.063-89.628
	c0.147-37.685-0.098-76.011,2.644-113.628c1.53-20.996,8.876-50.209-7.033-68.032c-7.387-8.275-18.359-8.025-28.72-8.225
	c-37.664-0.729-75.559,1.102-113.034-2.226c-40.375-3.587-80.671-2.04-121.092-2.199c-12.509-0.049-25.567-0.42-37.989,0.443
	C65.578,17.066,62.525,19.658,55.198,28.131z"/>
<path style="fill:#4C4B46;" d="M87.952,81.67c-7.989-0.25-11.608,2.042-6.926,9.466c4.229,6.706,7.022,9.77,5.035,18.393
	c-1.629,7.067-9.336,15.832,3.943,13.879c12.635-1.859,17.851-8.305,18.105-20.255C108.232,97.282,104.059,77.495,87.952,81.67z"/>
<path style="fill:#A8AAA2;" d="M44.491,85.449c-7.414,0.24-19.048,6.016-25.823,9.448c-5.597,2.835-10.692,5.956-12.565,11.97
	c-6.913,22.201,30.353,18.35,42.826,18.894c9.225,0.402,22.396,0.808,30.835-3.292c9.99-4.853,10.345-21.258,3.936-28.987
	C74.697,82.625,50.635,83.079,44.491,85.449z"/>
<path style="fill:#4C4B46;" d="M87.952,159.144c-7.989-0.25-11.608,2.042-6.926,9.466c4.229,6.706,7.022,9.77,5.035,18.393
	c-1.629,7.067-9.336,15.832,3.943,13.879c12.635-1.859,17.851-8.305,18.105-20.255C108.232,174.757,104.059,154.969,87.952,159.144z
	"/>
<path style="fill:#A8AAA2;" d="M44.491,162.923c-7.414,0.24-19.048,6.017-25.823,9.448c-5.597,2.835-10.692,5.956-12.565,11.97
	c-6.913,22.201,30.353,18.35,42.826,18.894c9.225,0.402,22.396,0.808,30.835-3.292c9.99-4.853,10.345-21.258,3.936-28.986
	C74.697,160.1,50.635,160.553,44.491,162.923z"/>
<path style="fill:#4C4B46;" d="M87.952,236.618c-7.989-0.25-11.608,2.042-6.926,9.466c4.229,6.706,7.022,9.77,5.035,18.393
	c-1.629,7.067-9.336,15.832,3.943,13.879c12.635-1.859,17.851-8.305,18.105-20.255C108.232,252.231,104.059,232.444,87.952,236.618z
	"/>
<path style="fill:#A8AAA2;" d="M44.491,240.398c-7.414,0.24-19.048,6.016-25.823,9.448c-5.597,2.835-10.692,5.956-12.565,11.97
	c-6.913,22.201,30.353,18.35,42.826,18.894c9.225,0.402,22.396,0.808,30.835-3.292c9.99-4.853,10.345-21.258,3.936-28.986
	C74.697,237.574,50.635,238.028,44.491,240.398z"/>
<path style="fill:#4C4B46;" d="M87.952,314.093c-7.989-0.25-11.608,2.042-6.926,9.466c4.229,6.706,7.022,9.77,5.035,18.393
	c-1.629,7.067-9.336,15.832,3.943,13.879c12.635-1.859,17.851-8.305,18.105-20.255C108.232,329.705,104.059,309.918,87.952,314.093z
	"/>
<path style="fill:#A8AAA2;" d="M44.491,317.872c-7.414,0.24-19.048,6.017-25.823,9.448c-5.597,2.835-10.692,5.956-12.565,11.97
	c-6.913,22.201,30.353,18.35,42.826,18.894c9.225,0.402,22.396,0.808,30.835-3.292c9.99-4.853,10.345-21.258,3.936-28.987
	C74.697,315.048,50.635,315.502,44.491,317.872z"/>
<path style="fill:#71D182;" d="M170.465,58.994c-14.681,13.392-22.686,29.467-22.675,49.445c0.005,9.413-0.065,19.404,5.441,27.58
	c4.199,6.235,11.999,12.938,18.859,16.103c18.466,8.52,37.435,7.53,55.792-0.253c11.595-4.916,17.828-13.558,21.49-25.607
	c4.142-13.626,1.094-24.856-3.638-37.734c-5.443-14.815-14.335-27.224-28.566-34.356C200.472,45.805,184.332,52.795,170.465,58.994z
	"/>
<path style="fill:#14DDF7;" d="M178.863,221.082c11.466-0.419,23.05,0.589,34.525,0.09c8.368-0.363,16.761-0.157,25.122-0.526
	c4.836-0.214,15.251,0.179,19.899-2.065c7.248-3.498-2.243-17.605-4.596-23.154c-5.745-13.545-11.9-26.542-19.069-39.384
	c-5.387-9.65-11.247-19.713-15.591-29.894c-0.711-1.666-1.954-6.823-4.168-7.566c-3.097-1.04-5.758,5.814-7.319,8.224
	c-12.778,19.732-20.9,43.733-29.389,65.551C175.358,199.861,165.513,222.456,178.863,221.082z"/>
<g>
	<path style="fill:#008EE5;" d="M208.677,157.674c2.416,1.148,19.428-2.413,21.434-5.197c2.419-3.358-3.518-13.819-5.057-17.081
		c-1.592-3.375-3.308-6.836-5.153-10.077c-1.894-3.327-2.084-4.407-5.684-2.1c-7.847,5.03-12.152,13.83-14.989,22.067
		c-0.935,2.714-3.902,6.971-3.475,9.868c0.732,4.97,7.462,3.36,11.664,3.359"/>
	<path style="fill:#008EE5;" d="M136.032,389.468c-4.673,6.679-6.855,21.295,1.871,26.213c4.538,2.557,10.773,2.323,15.762,2.551
		c8.969,0.41,17.4-0.233,26.392-1.133c12.436-1.244,25.871-2.599,38.392-2.038c8.79,0.394,17.269,3.1,25.921,4.335
		c12.022,1.715,23.664-3.392,28.901-14.737c2.984-6.464,1.599-16.04-5.899-18.887c-3.485-1.323-8.56-0.355-12.169-0.177
		c-7.923,0.391-16.088,0.55-23.965,0.187c-9.404-0.434-18.731,0.05-28.124-0.49c-6.783-0.39-12.97,0.337-19.44-1.947
		c-5.68-2.005-11.328-1.781-17.34-2.163C155.857,380.518,142.92,379.624,136.032,389.468z"/>
</g>
<path style="fill:#F76B25;" d="M434.172,205.545c-0.052,17.25-2.102,34.411-2.1,51.7c0.002,16.491-0.157,33.026,0.001,49.504
	c0.171,17.913,0.794,35.87,0.838,53.803c0.036,14.913-0.976,29.877-0.092,44.776c0.355,5.974-0.57,17.266,3.138,22.35
	c4.09,5.608,16.182,2.557,22.125,2.522c10.221-0.059,20.342-1.583,30.512-1.68c4.084-0.039,9.002,0.795,12.896-0.318
	c5.588-1.597,3.676-5.878,3.239-11.577c-1.866-24.328,0.638-48.953,0.427-73.337c-0.184-21.297-0.435-42.947-1.575-64.204
	c-1.382-25.787-2.293-51.588-3.545-77.315c-2.056-0.048-2.357,1.211-3.849,2.257c-4.167,2.922-7.436,6.07-12.38,7.736
	c-2.94,0.991-7.209,2.54-10.11,0.896c-2.244-1.272-3.132-6.09-5.318-7.121c-4.308-2.033-8.035,5.464-13.371,5.881
	c-8.748,0.685-12.601-9.418-19.992-9.531C434.662,202.195,434.521,202.574,434.172,205.545z"/>
<path style="fill:#FFCFB4;" d="M452.228,144.657c-7.175,8.149-10.544,22.767-12.443,33.176c-1.401,7.68-5.19,17.423-4.718,25.155
	c6.279-0.589,11.376,5.967,16.881,8.227c5.487,2.252,14.199,0.224,15.928-6.331c3.927,3.92,7.466,7.72,13.749,7.696
	c8.153-0.032,15.428-8.556,16.301-16.338c1.165-10.394-6.588-21.961-10.182-31.449c-2.804-7.401-4.896-13.854-9.514-20.137
	c-1.938-2.637-2.227-6.154-5.202-5.701c-1.96,0.299-5.227,4.537-7.632,5.384C462.195,145.466,455.827,146.128,452.228,144.657z"/>
<path style="fill:#4C4B46;" d="M460.207,116.523c-2.027,4.205-11.356,24.683-8.008,27.651c0.732,0.649,7.473,0.545,8.848,0.81
	c2.733,0.527,6.068,1.243,8.725,0.512c6.472-1.781,8.932-8.765,6.421-14.592C474.309,126.535,467.64,111.357,460.207,116.523z"/>
<path style="fill:#FFDC0F;" d="M438.791,431.039c0,4.812-1.307,11.386-0.003,15.939c1.336,4.664,3.028,3.034,7.237,2.003
	c5.886-1.442,13.192-1.271,19.22-1.176c7.392,0.116,14.282-0.154,21.671-0.82c5.168-0.466,10.111-0.62,15.2-1.69
	c3.705-0.779,3.89,0.243,3.826-3.529c-0.04-2.364-2.272-10.058-4.257-11.48c-2.443-1.75-8.673-0.585-11.473-0.507
	c-9.544,0.263-19.189,0.859-28.744,0.326C453.288,429.648,443.998,425.989,438.791,431.039z"/>
<path style="fill:#FF8B97;" d="M505.137,471.351c-2.043,6.879-4.727,13.424-10.162,18.381c-6.315,5.76-12.094,5.671-20.072,5.625
	c-9.421-0.054-15.586-0.413-23.002-7.19c-5.695-5.204-10.076-14.699-12.688-21.951c-0.995-2.764-4.61-12.907-1.701-15.042
	c0.863-0.634,4.088,0.461,5.055,0.46c3.682-0.004,7.716-0.593,11.407-0.964c13.739-1.381,27.531-1.627,41.188-2.813
	c3.859-0.335,7.034-1.312,9.87,1.661C510.871,455.639,506.257,467.002,505.137,471.351z"/>
<path d="M369.347,14.181c-19.698-3.126-40.673-1.423-60.594-1.747c-22.472-0.366-45.009-0.17-67.513-0.165
	c-48.299,0.011-96.872-3.416-145.089-2.029c-11.255,0.324-22.787,2.098-33.725,4.802c-6.256,1.547-11.437,4.499-13.801,10.827
	c-3.455,9.253-0.91,21.846-0.611,31.487c0.242,7.812,0.9,15.536,1.273,23.322c-15.136,1.965-40.82,4.708-47.425,21.343
	c-11.039,27.802,29.885,30.604,47.1,30.675c0.947,0.004,1.863-0.011,2.783-0.025c-0.354,3.396-0.094,6.951,0.121,10.178
	c0.343,5.164-0.277,10.469,0.124,15.634c-15.638,1.561-43.316,4.486-50.128,21.642c-11.039,27.802,29.885,30.604,47.1,30.675
	c0.947,0.004,1.863-0.011,2.783-0.025c-0.354,3.396-0.094,6.951,0.121,10.178c0.343,5.164-0.277,10.469,0.124,15.634
	c-15.665,1.563-43.306,4.462-50.128,21.642c-11.039,27.802,29.885,30.604,47.1,30.675c0.947,0.004,1.863-0.011,2.783-0.025
	c-0.354,3.396-0.094,6.951,0.121,10.178c0.343,5.164-0.277,10.469,0.124,15.634c-15.702,1.567-43.274,4.383-50.127,21.642
	c-11.039,27.802,29.885,30.604,47.1,30.675c0.947,0.004,1.863-0.011,2.783-0.025c-0.193,1.853-0.198,3.751-0.132,5.62
	c-0.69,18.249,0.675,35.776,2.746,54.002c1.874,16.484,0.36,30.545,19.522,34.852c18.311,4.115,37.707,4.238,56.333,5.942
	c20.606,1.886,42.819,0.804,63.532-0.087c48.474-2.084,97.414,3.562,145.649-3.479c15.522-2.265,36.572-5.1,43.932-21.204
	c7.455-16.31,5.549-39.214,5.929-56.733c0.24-11.063-1.139-22.023-0.676-33.116c0.444-10.626,1.287-21.255,1.312-31.895
	c0.055-23.02,1.594-46.065,1.872-69.119c0.555-46.084,4.371-91.872,4.361-137.987c-0.005-23.458,0.929-47.135,0.025-70.567
	C395.504,26.413,386.225,16.859,369.347,14.181z M41.179,122.693c-7.491-0.275-17.167-1.559-24.069-4.665
	c-15.549-6.996-0.295-18.473,9.204-21.371c9.286-2.833,18.012-4.53,27.64-5.422c2.501-0.232,5.068-0.341,7.576-0.669
	c2.431,0.315,4.829,0.762,7.167,1.416c5.211,1.457,10.897,4.127,12.946,9.639c3.042,8.185-3.823,13.201-9.836,16.903
	C62.982,123.957,51.256,123.062,41.179,122.693z M41.179,200.797c-7.491-0.275-17.167-1.559-24.069-4.665
	c-15.549-6.996-0.295-18.473,9.204-21.37c9.286-2.833,18.012-4.53,27.64-5.422c2.501-0.232,5.068-0.341,7.576-0.669
	c2.431,0.315,4.829,0.762,7.167,1.416c5.211,1.457,10.897,4.127,12.946,9.639c3.042,8.185-3.823,13.201-9.836,16.903
	C62.982,202.061,51.256,201.167,41.179,200.797z M41.179,278.901c-7.491-0.275-17.167-1.559-24.069-4.665
	c-15.549-6.996-0.295-18.473,9.204-21.37c9.286-2.833,18.012-4.53,27.64-5.422c2.501-0.232,5.068-0.341,7.576-0.669
	c2.431,0.315,4.829,0.762,7.167,1.416c5.211,1.457,10.897,4.127,12.946,9.639c3.042,8.185-3.823,13.201-9.836,16.903
	C62.982,280.165,51.256,279.271,41.179,278.901z M41.179,357.005c-7.491-0.275-17.167-1.559-24.069-4.665
	c-15.549-6.996-0.295-18.473,9.204-21.37c9.286-2.833,18.012-4.53,27.64-5.422c2.501-0.232,5.068-0.341,7.576-0.669
	c2.431,0.315,4.829,0.762,7.167,1.416c5.211,1.457,10.897,4.127,12.946,9.639c3.042,8.185-3.823,13.201-9.836,16.903
	C62.982,358.269,51.256,357.375,41.179,357.005z M384.457,104.198c-0.018,78.676-4.005,157.482-6.965,236.085
	c-0.693,18.401,0.41,36.715-0.467,55.077c-0.845,17.69,3.187,44.971-17.205,51.929c-39.696,13.545-86.939,8.152-128.138,7.574
	c-41.943-0.588-83.587,2.563-125.385-1.566c-9.615-0.95-19.814-0.924-29.234-3.375c-8.15-2.121-8.874-5.286-9.717-13.145
	c-0.423-3.935-0.539-7.857-1.035-11.79c-2.418-19.178-1.174-39.48-3.966-58.773c5.293-0.772,10.236-2.213,15.083-4.858
	c7.072,2.724,14.661,2.216,22.12-1.645c9.201-4.765,12.68-16.849,11.158-26.497c-1.592-10.095-5.136-19.205-15.918-21.604
	c-6.381-1.42-21.012-3.58-24.999,3.704c-2.032-0.434-4.129-0.71-6.266-0.866c0.474-5.053,0.087-10.43-0.419-15.223
	c-0.372-3.522-0.227-7.441-0.759-11.113c5.293-0.772,10.236-2.214,15.083-4.858c7.072,2.724,14.661,2.217,22.12-1.645
	c9.201-4.765,12.68-16.849,11.158-26.497c-1.592-10.095-5.136-19.205-15.918-21.605c-6.381-1.42-21.012-3.58-24.999,3.704
	c-2.032-0.434-4.129-0.71-6.266-0.866c0.474-5.053,0.087-10.43-0.419-15.223c-0.372-3.521-0.227-7.441-0.759-11.113
	c5.293-0.772,10.236-2.214,15.083-4.858c7.072,2.724,14.661,2.217,22.12-1.645c9.201-4.765,12.68-16.849,11.158-26.497
	c-1.592-10.095-5.136-19.205-15.918-21.605c-6.381-1.42-21.012-3.58-24.999,3.704c-2.032-0.434-4.129-0.71-6.266-0.866
	c0.474-5.053,0.087-10.43-0.419-15.223c-0.372-3.521-0.227-7.441-0.759-11.114c5.293-0.772,10.236-2.214,15.083-4.858
	c7.072,2.724,14.661,2.217,22.12-1.645c9.201-4.765,12.68-16.849,11.158-26.497C109.114,88.81,105.57,79.7,94.788,77.301
	c-6.381-1.42-21.012-3.58-24.999,3.704c-3.207-0.685-6.571-0.992-10.012-1.016c0.203-13.826-1.131-27.775-0.642-41.588
	c0.434-12.263,8.919-12.47,18.956-14.438c10.384-2.036,21.223-2.638,31.818-2.452c35.67,0.623,71.376,2.484,107.077,2.325
	c38.894-0.173,77.763,0.776,116.609,0.658c18.188-0.056,50.502-5.078,51.013,20.949C384.99,64.995,384.461,84.632,384.457,104.198z
	 M88.553,327.109c-1.642-2.273-3.492-4.18-5.508-5.773l6.178-0.973c0.365,0.062,0.751,0.123,1.097,0.185
	c5.89,1.064,8.443,2.559,10.412,8.505c0.95,2.869,1.913,6.37,1.746,9.362c-0.429,7.67-5.177,13.737-12.786,15.031
	c-0.745,0.127-1.49,0.207-2.235,0.261C93.68,346.353,94.415,335.224,88.553,327.109z M88.553,249.005
	c-1.642-2.273-3.492-4.18-5.508-5.773l6.178-0.973c0.365,0.062,0.751,0.123,1.097,0.185c5.89,1.064,8.443,2.559,10.412,8.505
	c0.95,2.869,1.913,6.369,1.746,9.362c-0.429,7.67-5.177,13.737-12.786,15.031c-0.745,0.127-1.49,0.207-2.235,0.26
	C93.68,268.249,94.415,257.12,88.553,249.005z M88.553,170.901c-1.642-2.273-3.492-4.18-5.508-5.773l6.178-0.973
	c0.365,0.062,0.751,0.123,1.097,0.185c5.89,1.064,8.443,2.559,10.412,8.505c0.95,2.869,1.913,6.369,1.746,9.362
	c-0.429,7.67-5.177,13.737-12.786,15.031c-0.745,0.127-1.49,0.207-2.235,0.26C93.68,190.145,94.415,179.016,88.553,170.901z
	 M88.553,92.797c-1.642-2.273-3.492-4.18-5.508-5.773l6.178-0.973c0.365,0.062,0.751,0.123,1.097,0.185
	c5.89,1.064,8.443,2.559,10.412,8.505c0.95,2.869,1.913,6.369,1.746,9.362c-0.429,7.67-5.177,13.737-12.786,15.031
	c-0.745,0.127-1.49,0.207-2.235,0.26C93.68,112.04,94.415,100.912,88.553,92.797z"/>
<path d="M510.057,407.565c-0.847-22.509-1.586-44.982-1.959-67.512c-0.431-26.07,1.416-52.128,0.202-78.229
	c-0.606-13.049,0.299-26.162-0.407-39.195c-1.516-28.001-11.832-56.399-24.64-81.27c-3.718-7.219-10.511-35.025-23.268-30.972
	c-6.799,2.16-8.669,11.334-10.422,17.194c-2.833,9.472-5.262,19.039-8.015,28.535c-5.519,19.038-12.555,38.193-12.973,58.233
	c-0.431,20.637,0.041,41.281,0.05,61.944c0.012,26.396,1.295,52.745,0.912,79.136c-0.338,23.3,0.716,46.733,1.116,70.033
	c0.307,17.886,1.532,38.188,9.678,54.458c15.125,30.208,63.033,30.658,69.689-5.52C514.005,452.741,510.881,429.45,510.057,407.565z
	 M496.727,222.068c0.65,10.065,0.006,20.264,0.082,30.355c0.16,21.15,1.29,42.328,0.639,63.512
	c-1.12,36.413,1.249,72.604,1.737,108.999c-8.165,1.137-16.948,0.968-25.402,0.99c0.001-0.003,0.003-0.005,0.003-0.008
	c2.866-13.822-0.128-31.518-1.208-45.594c-1.551-20.21-1.941-40.4-2.294-60.659c-0.61-35.089,1.939-70.14,1.551-105.234
	c2.046,2.213,4.686,3.718,8.201,3.825c7.802,0.237,12.018-4.984,16.457-9.973C496.882,212.953,496.472,218.114,496.727,222.068z
	 M459.13,128.437c1.483-4.672,0.687-8.993,5.24-5.847c2.626,1.815,3.503,8.369,4.843,11.416c0.782,1.778,1.604,3.529,2.44,5.269
	c-0.872-0.059-1.795,0.216-2.628,0.973c-3.701,3.364-9.228,1.87-13.4-0.311C456.779,136.099,457.918,132.256,459.13,128.437z
	 M453.729,146.191c6.218,3.586,15.518,4.022,20.335-0.904c0.124-0.127,0.215-0.261,0.316-0.392c1.476,3.036,2.93,6.086,4.225,9.237
	c3.11,7.569,7.042,14.884,9.674,22.632c2.189,6.444,3.349,13.181,5.403,19.653c-5.179,5.8-13.663,18.69-18.253,4.304
	c-0.712-2.229-3.429-4.392-5.903-3.352c-3.628,1.525-4.694,4.807-7.79,6.72c-12.295,7.596-14.553-4.627-22.684-6.618
	C444.091,180.427,448.72,163.244,453.729,146.191z M441.016,407.838c-0.639-20.607-0.985-41.318-1.024-61.938
	c-0.066-35.598-1.725-71.119-2.133-106.587c-0.097-8.468-3.248-23.744,0.575-31.609c1.656,1.317,2.789,3.304,4.488,4.658
	c2.844,2.266,6.317,3.816,9.925,4.301c3.844,0.517,7.286-0.149,10.68-1.984c0.548-0.296,1.07-0.711,1.582-1.172
	c0.238,35.437-2.753,70.723-2.716,106.155c0.02,19.506,0.098,38.998,1.531,58.463c0.645,8.762,0.845,17.482,1.182,26.258
	c0.274,7.125-0.818,14.718,1.677,21.533c0.017,0.046,0.052,0.079,0.071,0.124c-0.953,0.03-1.916,0.048-2.851,0.097
	c-7.456,0.388-15.037,0.411-22.432,1.433C441.316,420.911,441.216,414.281,441.016,407.838z M441.933,435.024
	c9.847-0.456,19.808-0.072,29.658-0.597c7.784-0.415,19.01,1.315,28.043-0.062c0.189,2.492,0.415,5.131,0.627,7.841
	c-19.115,0.696-38.329,1.864-57.182,5.122C442.566,443.26,442.187,439.151,441.933,435.024z M491.527,486.256
	c-8.061,6.833-21.98,5.343-30.319,0.066c-8.407-5.32-12.826-14.475-15.295-23.83c-0.848-3.212-1.485-6.504-2.037-9.825
	c18.788,1.625,38.174-0.41,56.992-0.76C501.385,465.311,500.179,478.922,491.527,486.256z"/>
<path d="M189.065,161.098c-1.887,4.72-3.775,9.432-5.713,14.105c-3.687,8.891-7.974,17.494-11.31,26.557
	c-1.837,4.991-6.569,12.842-3.27,18.213c3.167,5.155,11.39,5.625,16.642,5.839c8.917,0.365,17.886,0.3,26.797,0.621
	c7.677,0.277,15.205-0.966,22.839-1.156c7.209-0.18,14.881,0.881,21.227-3.677c11.261-8.088,4.381-23.042-0.26-32.771
	c-6.08-12.749-12.658-25.267-19.191-37.814c19.068-14.727,22.492-41.095,12.482-65.57c-6.058-14.809-15.981-27.639-30.969-34.216
	c-8.544-3.749-16.232-4.485-23.591-3.111c-0.285-0.137-0.602-0.223-0.978-0.186c-32.731,3.235-56.152,40.013-48.913,70.801
	C150.248,141.656,168.054,156.821,189.065,161.098z M243.731,181.68c3.24,5.794,6.981,11.927,9.088,18.257
	c2.2,6.609,2.853,13.08-5.239,17.211c-3.83,1.955-9.726,0.684-13.737,0.71c-9.931,0.064-19.554,1.031-29.506,0.628
	c-6.294-0.255-12.645,0.619-18.923,0.242c-13.624-0.817-9.604-7.674-6.204-16.997c4.432-12.156,9.962-23.918,14.764-35.944
	c0.493-1.236,0.954-2.492,1.436-3.734c7.995,0.771,16.305,0.004,24.462-2.471c3.862-1.172,7.376-2.666,10.577-4.415
	C234.706,164.1,238.919,173.074,243.731,181.68z M198.136,154.971c1.438-3.835,2.862-7.682,4.31-11.517
	c2.594-6.866,9.893-24.238,15.566-12.881c2.611,5.229,5.51,10.339,8.088,15.579c0.399,0.811,0.784,1.631,1.179,2.444
	c-2.79,1.555-5.885,2.896-9.343,3.96C211.393,154.569,204.68,155.321,198.136,154.971z M163.041,73.745
	c10.954-12.994,27.56-21.649,45.214-17.963c13.25,2.766,24.871,13.807,30.795,25.474c11.095,21.855,12.009,48.467-5.631,63.166
	c-1.747-3.375-3.496-6.75-5.211-10.141c-2.805-5.547-8.891-28.223-18.568-18.352c-4.581,4.672-8.54,15.089-11.305,20.887
	c-1.43,2.999-2.395,6.137-3.232,9.315c-1.117,2.717-2.202,5.447-3.296,8.173c-18.514-3.145-34.603-15.649-39.768-35.609
	C147.509,101.185,151.618,87.295,163.041,73.745z"/>
<path d="M278.803,250.121c-23.56-3.165-48.367-1.094-72.087-0.867c-21.978,0.211-45.699-1.781-67.377,2.161
	c-0.939,0.171-0.94,1.727,0,1.898c21.695,3.945,45.395,1.951,67.377,2.162c23.722,0.228,48.533,2.297,72.087-0.867
	C281.681,254.223,281.687,250.509,278.803,250.121z"/>
<path d="M278.803,271.537c-23.56-3.165-48.367-1.094-72.087-0.867c-21.978,0.211-45.699-1.781-67.377,2.161
	c-0.939,0.171-0.94,1.727,0,1.898c21.695,3.945,45.395,1.951,67.377,2.161c23.722,0.228,48.533,2.298,72.087-0.867
	C281.681,275.638,281.687,271.924,278.803,271.537z"/>
<path d="M278.803,292.953c-23.56-3.165-48.367-1.094-72.087-0.867c-21.978,0.211-45.699-1.781-67.377,2.161
	c-0.939,0.171-0.94,1.727,0,1.898c21.695,3.945,45.395,1.951,67.377,2.161c23.722,0.228,48.533,2.297,72.087-0.867
	C281.681,297.054,281.687,293.34,278.803,292.953z"/>
<path d="M278.803,314.368c-23.56-3.165-48.367-1.094-72.087-0.867c-21.978,0.211-45.699-1.781-67.377,2.161
	c-0.939,0.171-0.94,1.727,0,1.898c21.695,3.945,45.395,1.951,67.377,2.161c23.722,0.228,48.533,2.297,72.087-0.867
	C281.681,318.47,281.687,314.756,278.803,314.368z"/>
<path d="M278.803,335.784c-23.56-3.165-48.367-1.094-72.087-0.867c-21.978,0.211-45.699-1.781-67.377,2.161
	c-0.939,0.171-0.94,1.727,0,1.898c21.695,3.945,45.395,1.951,67.377,2.161c23.722,0.228,48.533,2.297,72.087-0.867
	C281.681,339.885,281.687,336.171,278.803,335.784z"/>
<path d="M358.803,81.945c-13.669-3.165-28.063-1.094-41.824-0.867c-12.752,0.211-26.514-1.781-39.092,2.161
	c-0.545,0.171-0.545,1.727,0,1.898c12.588,3.945,26.338,1.951,39.092,2.161c13.764,0.228,28.158,2.298,41.824-0.867
	C360.473,86.047,360.476,82.333,358.803,81.945z"/>
<path d="M358.803,103.361c-13.669-3.165-28.063-1.094-41.824-0.867c-12.752,0.211-26.514-1.781-39.092,2.161
	c-0.545,0.171-0.545,1.727,0,1.898c12.588,3.945,26.338,1.951,39.092,2.161c13.764,0.228,28.158,2.298,41.824-0.867
	C360.473,107.462,360.476,103.748,358.803,103.361z"/>
<path d="M358.803,124.777c-13.669-3.165-28.063-1.094-41.824-0.867c-12.752,0.211-26.514-1.781-39.092,2.162
	c-0.545,0.171-0.545,1.727,0,1.898c12.588,3.945,26.338,1.951,39.092,2.161c13.764,0.228,28.158,2.297,41.824-0.867
	C360.473,128.878,360.476,125.164,358.803,124.777z"/>
<path d="M358.803,146.192c-13.669-3.165-28.063-1.094-41.824-0.867c-12.752,0.211-26.514-1.781-39.092,2.162
	c-0.545,0.171-0.545,1.727,0,1.898c12.588,3.945,26.338,1.95,39.092,2.161c13.764,0.228,28.158,2.297,41.824-0.867
	C360.473,150.294,360.476,146.58,358.803,146.192z"/>
<path d="M358.803,167.608c-13.669-3.165-28.063-1.094-41.824-0.867c-12.752,0.211-26.514-1.781-39.092,2.161
	c-0.545,0.171-0.545,1.727,0,1.898c12.588,3.945,26.338,1.951,39.092,2.161c13.764,0.228,28.158,2.298,41.824-0.867
	C360.473,171.709,360.476,167.995,358.803,167.608z"/>
<path d="M339.751,310.588c-0.993-10.999-4.181-23.307-11.707-31.722c-4.553-5.09-13.491-14.517-20.896-14.357
	c-2.214,0.048-3.33,3.266-1.182,4.365c6.273,3.21,14.63,11.797,18.43,17.5c6.968,10.457,9.322,26.544,6.531,38.512
	c-4.155,17.816-16.78,29.522-27.839,42.799c-0.352-5.818-1.184-11.599-4.378-16.254c-2.125-3.095-7.415-2.15-7.373,1.997
	c0.089,8.795,1.359,19.759,4.776,27.912c0.704,1.681,1.919,2.89,3.845,2.928c9.32,0.181,19.274-0.905,28.607-1.499
	c4.882-0.311,4.896-7.297,0-7.598c-3.994-0.246-8.037-0.397-12.041-0.229c-2.64,0.111-7.056,1.348-10.416,1.442
	C321.515,355.943,342.33,339.153,339.751,310.588z"/>
<path d="M267.482,381.568c-10.039-1.435-20.225-1.876-30.343-1.819c-9.423,0.053-18.594,0.095-27.964,1.033
	c-2.941,0.294-5.858,0.348-8.765,0.36c-11.779-0.611-23.544-1.527-35.334-1.574c-9.22-0.037-27.507-0.873-33.521,8.397
	c-4.765,7.344-5.374,24.02,1.856,29.947c9.421,7.723,29.146,5.198,39.993,4.654c19.831-0.995,39.623-1.125,59.466-1.53
	c11.437-0.233,28.486,1.198,38.174-6.274c6.358-4.903,11.173-22.143,6.176-29.218C274.83,382.16,271.164,382.094,267.482,381.568z
	 M270.395,399.489c-0.595,7.124-6.937,11.123-13.286,12.707c-7.421,1.852-16.595,1.337-24.238,1.511
	c-16.129,0.367-32.209,0.775-48.337,1.299c-13.352,0.434-43.025,6.72-49.076-9.504c-2.038-5.465,2.995-14.777,7.742-16.652
	c3.501-1.382,8.644-1.117,12.329-1.402c7.168-0.554,14.192-0.178,21.349,0.193c15.938,0.826,31.898,0.332,47.847,0.27
	c10.222-0.04,20.449-0.8,30.671-0.381C265.133,387.929,271.356,387.985,270.395,399.489z"/>
<g>
</g>
<g>
</g>
<g>
</g>
<g>
</g>
<g>
</g>
<g>
</g>
<g>
</g>
<g>
</g>
<g>
</g>
<g>
</g>
<g>
</g>
<g>
</g>
<g>
</g>
<g>
</g>
<g>
</g>
</svg>
