<?xml version="1.0" encoding="iso-8859-1"?>
<!-- Generator: Adobe Illustrator 19.0.0, SVG Export Plug-In . SVG Version: 6.00 Build 0)  -->
<svg version="1.1" id="Capa_1" xmlns="http://www.w3.org/2000/svg" xmlns:xlink="http://www.w3.org/1999/xlink" x="0px" y="0px"
	 viewBox="0 0 512.002 512.002" style="enable-background:new 0 0 512.002 512.002;" xml:space="preserve">
<path style="fill:#727272;" d="M5.487,306.156c-3.244,2.628-2.154,11.164-2.195,14.939c-0.049,4.653-0.605,9.731,0.611,14.247
	c0.934,3.469,1.235,7.392,3.436,10.333c1.768,2.363,4.075,4.84,6.26,6.832c5.022,4.577,11.404,7.947,17.788,10.189
	c7.054,2.477,14.521,3.924,21.996,4.178c7.42,0.252,14.742-1.706,22.167-0.86c6.154,0.701,12.3-0.098,18.453,0.541
	c4.198,0.436,8.493,0.924,12.704,1.01c4.482,0.091,8.967,0.178,13.448,0.327c3.421,0.114,6.51,1.149,9.862,1.392
	c6.015,0.436,12.227,0.048,18.166,0.572c5.251,0.463,10.314,1.154,15.646,1.266c6.697,0.142,13.617-0.311,20.33-0.54
	c7.841-0.267,15.259-0.933,23.104-0.547c6.691,0.329,13.415,0.262,20.123,0.262c21.413,0,42.766,1.376,64.163,1.376
	c7.25,0,14.555-2.126,21.735-1.231c7.151,0.891,14.694-0.234,21.912-0.4c5.848-0.134,11.476-2.156,17.332-2.441
	c4.952-0.241,10.219-0.388,15.159,0.069c4.602,0.426,8.842,2.503,13.472,2.846c9.04,0.669,19.194-0.044,28.136-1.395
	c6.157-0.931,12.366-0.536,18.624-1.573c7.125-1.181,14.758-4.73,19.296-10.303c4.297-5.277,7.351-13.19,9.911-19.585
	c2.016-5.036,3.661-10.424,4.783-15.734c0.667-3.156,2.555-8.541,1.652-11.778c-0.984-3.526-6.423-2.066-9.474-1.548
	c-6.799,1.154-13.45-0.772-20.27-1.068c-9.422-0.409-18.529,1.386-27.979,1.376c-12.519-0.012-24.996-1.376-37.54-1.376
	c-9.808,0-20.607,2.072-30.308,0.722c-8.889-1.237-17.402,0.073-26.409,0.736c-9.9,0.729-19.585-1.16-29.432-1.464
	c-7.18-0.222-14.408,0.086-21.59,0.007c-6.001-0.066-11.755-1.327-17.652-2.204c-3.761-0.559-7.718-1.513-11.53-1.642
	c-6.905-0.234-12.079,2.279-18.649-0.528c-6.582-2.812-14.379-1.781-21.316-0.938c-6.879,0.837-11.965,0-18.628-1.108
	c-8.606-1.431-16.951,1.675-25.524,1.738c-7.094,0.052-14.082,0.276-21.184,0.275c-9.211-0.002-18.345,0.825-27.55,0.826
	c-4.771,0.001-9.685-0.297-14.391,0.667c-3.424,0.702-5.632,1.834-8.994,0.538c-7.466-2.878-15.608-2.937-23.57-1.765
	c-8.748,1.287-17.522,2.282-26.403,1.936c-3.781-0.147-7.473-0.513-11.283-0.55c-1.659-0.016-3.611-0.943-5.093-0.851
	C6.143,304.094,5.36,307.131,5.487,306.156z"/>
<path style="fill:#6D6D6D;" d="M169.832,406.36c0.016,5.493,0.465,13.01,3.371,17.846c1.814,3.019,6.948,4.475,10.391,4.982
	c7.372,1.086,14.926,0.835,22.335,1.8c7.311,0.952,14.533,1.467,21.874,2.082c10.589,0.888,22.297,0.538,32.806-0.841
	c8.262-1.084,16.33-3.02,24.706-3.02c3.186,0,6.848,0.313,9.91-0.514c3.864-1.043,6.172-4.86,7.994-8.157
	c5.433-9.835,4.857-22.792,3.773-33.813c-0.364-3.701-0.534-7.904-1.231-11.526c-0.989-5.138-5.085-3.963-9.244-3.796
	c-19.929,0.796-39.561-3.745-59.387-3.584c-11.695,0.095-23.126,1.764-34.888,1.371c-7.688-0.257-15.3-0.286-22.933-1.308
	c-2.626-0.352-6.119-0.913-8.696-0.051c-2.538,0.849-1.884,1.541-1.881,4.74c0.008,7.753,0.232,15.578-0.138,23.311
	C168.443,399.028,168.721,402.098,169.832,406.36z"/>
<path style="fill:#F4F4F4;" d="M341.885,433.338c1.316,3.939,1.751,10.139-0.262,13.972c-2.723,5.184-10.387,4.856-15.368,5.512
	c-8.199,1.081-16.573,0.456-24.831,1.508c-4.633,0.59-8.816,1.497-13.494,1.099c-3.97-0.338-7.996-1.138-11.907-1.927
	c-18.834-3.799-37.523,0.483-56.509,0.483c-8.72,0-17.391,0.456-26.098,0.023c-7.38-0.366-14.779-1.125-22.159-1.125
	c-11.361,0-23.363,0.239-34.36-3.059c-3.031-0.909-7.636-2.242-8.883-5.539c-1.376-3.638,0.867-7.527,3.813-9.508
	c3.948-2.655,7.813-4.041,12.402-5.216c5.881-1.505,12.939-1.643,19.006-1.456c3.4,0.105,6.472,1.618,9.907,1.654
	c3.429,0.036,6.777,0.006,10.172,0.343c9.884,0.98,19.517,0.615,29.469,1.027c8.163,0.338,16.308,1.665,24.493,1.232
	c8.117-0.429,15.882-1.089,24.093-0.69c8.429,0.41,17.305,0.683,25.665-0.605c8.137-1.254,16.112-2.683,24.371-2.684
	c5.273,0,10.491-0.703,15.739-0.55C330.707,427.937,336.474,428.787,341.885,433.338z"/>
<path style="fill:#6D6D6D;" d="M229.293,325.151c-6.414,3.956-8.735,15.721-4.794,21.885c3.228,5.048,9.05,7.83,14.704,8.121
	c7.069,0.364,11.625-0.193,15.174-7.02c3.707-7.13,5.301-14.171,0.318-21.335c-2.15-3.091-5.246-4.723-8.886-5.451
	c-2.39-0.478-4.341-0.315-6.69,0.335c-0.999,0.276-2.399,0.496-3.294,1.042C234.236,323.697,233.575,325.496,229.293,325.151z"/>
<path style="fill:#F4F4F4;" d="M9.645,79.956c-1.739,7.917-1.888,16.343-2.292,24.402c-0.509,10.168-0.862,20.343-1.377,30.51
	c-0.574,11.331-1.553,22.621-2.086,33.91c-0.243,5.157-0.055,10.364-0.055,15.528c0,6.681-0.275,13.325-0.275,20.007
	c0,11.225-0.243,22.492,0.299,33.686c0.801,16.562,0.904,33.116,0.253,49.726c-0.185,4.729-0.829,10.793,0.337,15.403
	c1.06,4.192,6.309,4.719,10.363,4.707c10.556-0.031,21.143-0.167,31.661-1.138c4.015-0.371,6.945-1.565,10.66-2.76
	c4.159-1.338,8.584-0.021,12.856,0.016c4.47,0.039,8.918-0.279,13.393-0.274c9.429,0.01,18.661-0.158,28.088,0.214
	c5.693,0.224,11.434,0.621,17.131,0.612c9.152-0.015,18.212-2.955,27.166-1.255c10.219,1.94,21.88,0.809,32.244,0.675
	c22.02-0.285,44.071-1.41,66.073,0.09c17.886,1.219,36.252,1.032,54.209,0.229c17.807-0.796,35.966-0.535,53.684,0.798
	c5.001,0.376,10.018,0.893,15.015,1.355c10.564,0.978,21.213,3.152,31.865,3.082c5.294-0.035,10.515-0.289,15.819-0.295
	c4.544-0.005,8.931-0.642,13.435-0.828c4.282-0.176,8.507,0.608,12.769,0.553c2.875-0.037,5.315,1.481,8.128,0.253
	c2.3-1.004,3.971-3.305,5.096-5.443c3.248-6.175,4.148-14.191,5.299-20.97c2.767-16.308,4.336-33.108,6.408-49.555
	c2.477-19.661,3.175-38.572,0.819-58.247c-1.048-8.755-1.96-18.707-0.966-27.484c0.966-8.535,1.24-17.131,1.799-25.697
	c0.38-5.815-1.433-10.56-1.71-16.203c-0.71-14.474,3.291-28.987-4.195-42.491c-3.041-5.485-9.354-9.079-14.728-11.831
	c-4.486-2.297-9.263-2.14-14.121-2.499c-5.634-0.416-11.495-1.591-17.118-2.388c-12.335-1.748-24.258-0.334-36.618-0.343
	c-27.963-0.022-55.888,0.824-83.783-0.611c-14.502-0.746-29.185,0.46-43.713-0.192c-7.003-0.314-13.968,0.331-20.97-0.016
	c-8.335-0.413-16.27-1.85-24.703-1.945c-8.554-0.096-17.079-0.736-25.622-0.291c-7.125,0.371-14.275,0.867-21.415,0.851
	c-13.299-0.03-26.699-1.036-39.979-0.067c-12.383,0.904-24.477,4.062-36.926,4.761c-10.119,0.568-20.941,2.108-31.042,1.649
	c-9.065-0.412-17.902-0.933-26.7,1.648c-3.385,0.993-6.875,1.34-9.703,3.628c-2.275,1.841-4.352,4.34-6.258,6.553
	C13.569,67.306,11.072,73.459,9.645,79.956z"/>
<path style="fill:#71D182;" d="M358.58,273.49c3.566,48.535-0.282,97.949,1.107,146.504c0.325,11.362-3.442,30.993,7.704,38.928
	c5.767,4.106,15.68,4.439,22.297,5.065c11.725,1.11,23.483,1.547,35.218,2.602c10.232,0.919,21.687,2.657,31.701-0.002
	c5.685-1.509,11.537-2.735,17.042-4.252c15.199-4.187,16.434-32.058,17.634-44.596c2.261-23.623,0.007-48.085-0.016-71.866
	c-0.011-11.421,1.81-22.518,2.231-33.856c0.298-8.054,3.133-18.939,1.101-26.869c-1.721-6.715-8.095-6.944-14.091-7.669
	c-14.43-1.743-28.815-3.847-43.29-4.955c-15.543-1.19-31.104-2.917-46.671-2.888C382.953,269.65,362.329,266.678,358.58,273.49z"/>
<path style="fill:#F4F4F4;" d="M446.855,227.793c-16.452,0.434-33.07-2.202-49.55-2.202c-8.035,0-15.798,0.685-23.768,1.101
	c-10.591,0.553-7.674,9.706-10.378,17.984c-1.175,3.597-2.862,3.855-6.736,4.41c-6.447,0.923-7.667,0.655-8.294,7.3
	c-0.315,3.341-2.097,11.122,1.462,12.901c1.801,0.9,5.571-0.31,7.485-0.404c5.091-0.25,10.21,0.31,15.279,0.57
	c12.825,0.657,25.789-0.165,38.589,0.827c10.142,0.787,20.244,1.974,30.375,2.67c13.814,0.95,27.749,2.031,41.423,3.742
	c5.501,0.688,10.965,1.505,16.538,1.762c4.251,0.196,6.766,1.426,8.28-2.772c1.296-3.595,1.083-11.63-0.49-15.237
	c-2.719-6.233-13.74-3.767-19.039-5.948c-1.841-0.758-2.114-0.653-3.021-2.529c-0.812-1.678-0.322-5.201-0.779-7.184
	c-0.724-3.139-1.481-6.648-2.486-9.694c-1.511-4.576-3.318-6.419-8.008-6.939C463.928,227.063,453.1,226.454,446.855,227.793z"/>
<path style="fill:#DD8C4E;" d="M448.323,334.236c-10.195-0.004-20.266,1.609-30.49,1.827c-11.218,0.239-22.259,1.209-33.424,1.475
	c-4.735,0.113-17.27-2.641-20.892,1.382c-1.619,1.798-0.944,7.135-1.052,9.393c-0.425,8.909-0.495,18.278,0.149,27.18
	c0.639,8.837,2.822,17.804,2.812,26.591c8.965-0.075,18.625,3.426,27.73,4.073c16.63,1.181,33.653-0.502,50.314-1.112
	c12.745-0.467,25.556,1.319,38.258,0.066c2.589-0.255,7.335,0.434,9.401-1.177c3.171-2.473,2.851-14.196,3.019-17.555
	c0.494-9.88-0.693-19.687-0.685-29.558c0.004-4.667,3.876-21.897-1.578-23.699c-1.587-0.524-4.655,0.513-6.326,0.654
	c-4.35,0.369-8.647,0.465-13.011,0.466C465.425,334.246,457.903,333.108,448.323,334.236z"/>
<path style="fill:#71D182;" d="M423.364,353.69c-15.614,5.399-19.187,33.636-0.674,37.153c13.608,2.586,29.066-8.883,24.631-24.601
	C444.291,355.501,432.959,351.685,423.364,353.69z"/>
<g>
	<path style="fill:#727272;" d="M377.85,83.177c-0.048,21.505-2.365,42.865-1.816,64.373c0.274,10.743-0.031,21.85-0.378,32.617
		c-0.194,6.034-2.211,19.997,2.839,24.738c3.372,3.166,12.41,4.051,16.772,4.463c5.733,0.541,19.223,1.336,23.817-2.637
		c3.135-2.712,2.669-9.21,3.179-12.91c1.059-7.687,2.482-15.163,4.064-22.761c2.481-11.916,0.534-24.578-0.116-36.591
		c-0.703-12.975-1.167-26.413-3.03-39.27c-1.554-10.721-5.495-14.708-16.144-16.976c-6.108-1.301-12.408-1.472-18.645-1.283
		C382.592,77.113,382.826,78.306,377.85,83.177z"/>
	<path style="fill:#727272;" d="M247.916,121.349c0.02,12.403,1.902,24.989,2.937,37.38c0.368,4.402-0.177,14.884,2.918,18.465
		c3.624-1.864,7.233-4.537,10.677-6.757c1.677-1.081,5.933-4.997,8.078-4.702c1.8,0.248,5.986,5.765,7.097,6.948
		c2.725,2.9,4.796,6.222,6.843,9.597c3.248,5.355,5.728,10.812,11.514,5.725c3.687-3.242,15.989-12.875,14.544-18.186
		c-1.02-3.747-7.264-7.201-10.044-9.684c-2.82-2.519-5.675-5.287-7.893-8.228c2.702-3.448,5.876-8.009,6.173-12.569
		c0.389-5.972-6.195-6.571-11.039-8.18c-7.602-2.524-15.331-4.521-23.061-6.595C262.746,123.513,249.205,116.603,247.916,121.349z"
		/>
</g>
<path style="fill:#FFDC0F;" d="M180.012,94.188c-6.948,2.489-14.021,3.708-20.909,6.608c-8.715,3.67-17.908,6.076-26.588,9.827
	c-5.757,2.488-13.518,7.007-16.092,12.946c-5.704,13.158,17.758,25.439,27.279,29.263c12.676,5.092,24.665,11.98,37.373,16.875
	c5.446,2.098,13.432,3.771,18.838,0.844c8.535-4.622,6.387-19.988,6.078-27.894c-0.481-12.315,1.353-26.736-1.468-38.742
	C202.162,93.868,189.714,93.362,180.012,94.188z"/>
<path style="fill:#14DDF7;" d="M109.906,91.619c-10.614,10.328-17.003,25.106-23.758,38.064c-4.88,9.362-11.221,19.43-14.199,29.517
	c-5.864,19.862,25.792,20.514,38.265,20.877c7.672,0.223,14.743-0.745,22.173-2.203c6.222-1.221,13.953-2.696,16.71-9.093
	c3.345-7.762-1.049-16.348-2.944-23.937c-2.199-8.801-5.067-17.794-8.72-26.103c-3.395-7.725-7.647-18.243-13.57-24.166
	c-2.322-2.322-5.039-3.748-8.268-4.392C110.571,89.18,111.003,89.885,109.906,91.619z"/>
<path style="fill:#71D182;" d="M121.285,119.881c-5.95,4.879-6.369,9.485-0.743,15.049c5.067,5.01,11.284,8.879,17.555,12.213
	c1.549,0.824,6.722,5.113,8.523,4.596c2.497-0.716,1.334-6.359,0.833-8.432c-2.065-8.557-6.58-17.182-10.68-24.932
	c-1.383-2.614-1.989-5.719-4.864-5.832C127.479,112.368,122.755,118.238,121.285,119.881z"/>
<path d="M243.622,317.303c-4.867-0.353-8.163,1.782-11.594,4.122c-1.829,0.822-3.506,1.907-4.989,3.211
	c-0.031,0.031-0.07,0.056-0.097,0.089c-4.782,4.26-7.451,10.759-5.997,17.837c2.387,11.625,19.262,20.222,29.661,13.799
	c10.245-6.329,15.358-20.026,8.375-30.773C255.727,320.579,249.545,317.733,243.622,317.303z M251.149,347.629
	c-3.475,3.388-7.158,5.449-12.165,4.289c-4.349-1.008-9.453-4.32-11.829-8.23c-4.519-7.435,0.399-13.847,6.735-18.026
	c4.048-1.372,7.8-3.218,12.738-1.455C256.468,327.72,258.485,340.48,251.149,347.629z"/>
<path d="M509.193,259.374c-2.399-4.344-6.494-6.835-11.125-8.251c-7.184-2.195-9.514,0.03-11.555-8.151
	c-2.657-10.651-5.185-18.95-5.322-30.343c-0.339-28.112,2.722-56.142,2.418-84.253c-0.17-15.76-1.288-31.637-2.205-47.389
	c-0.535-9.186-1.093-20.437-8.32-27.195c-8.926-8.348-24.404-11.877-36.032-12.995c-14.548-1.399-29.426-2.358-44.05-2.532
	c-26.281-0.312-52.54,1.015-78.799,0.881c-26.125-0.134-52.249-1.473-78.392-1.472c-57.814,0.001-115.236,1.554-172.951,4.378
	c-21.58,1.056-45.807,4.082-53.691,27.105c-4.049,11.82-4.552,26.722-5.686,39.189c-1.162,12.774-2.43,25.468-2.895,38.305
	c-1.918,52.92,1.517,105.814,0.984,158.795c-0.12,11.924,0.485,24.77,2.317,36.579c1.77,11.404,7.62,17.518,18.053,21.917
	c23.36,9.85,53.399,8.228,78.286,8.406c22.25,0.159,44.495,0.446,66.739,0.755c-1.214,12.244-1.549,24.915-0.952,37.097
	c0.254,5.164,0.622,9.81,2.876,13.722c-2.561-0.254-5.123-0.482-7.683-0.641c-10.078-0.629-22.971-0.155-30.135,8.304
	c-6.144,7.255-3.658,18.283,4.691,22.152c11.931,5.529,27.731,4.73,40.54,4.67c34.961-0.165,70.026-1.325,104.969-1.024
	c16.8,0.144,35.461,2.367,52.016-0.582c9.958-1.774,19.083-7.539,15.914-18.986c-3.801-13.731-20.222-15.247-32.096-14.671
	c-2.154,0.105-4.285,0.234-6.407,0.377c3.527-5.393,4.045-11.742,4.079-18.806c0.047-9.604,0.847-20.345-0.514-30.194
	c14.103-0.027,28.206,0.027,42.264,0.435c0.152,8.158,0.255,16.314,0.518,24.477c0.486,15.127-0.008,30.782,1.677,45.815
	c2.59,23.113,28.416,24.139,46.518,26.951c10.366,1.611,20.995,1.107,31.45,1.858c11.435,0.822,25.223-0.297,36.57-2.481
	c7.055-1.357,9.788-6.394,12.354-12.845c5.057-12.709,7.67-26.49,9.518-39.992c3.515-25.689,4.515-52.005,4.711-77.898
	c0.091-12.091-0.257-23.882,0.989-35.947c0.715-6.921,2.565-15.556-0.063-22.296c2.812,0.171,5.603-0.055,7.647-1.587
	C514.001,276.829,512.096,264.628,509.193,259.374z M479.816,249.358c-15.931-0.454-31.871,0.024-47.803-0.618
	c-16.422-0.662-32.841-1.385-49.284-1.396c-5.848-0.004-11.678,0.157-17.512-0.049c0.914-4.719,1.87-11.004,4.262-14.236
	c2.686-3.627,11.59-2.131,16.45-2.092c14.372,0.114,28.724,0.7,43.097,0.63c12.827-0.063,26.228-0.786,38.981,0.536
	C482.376,233.622,476.952,242.913,479.816,249.358z M10.933,239.787c-0.194-22.56-1.88-45.062-1.874-67.63
	c0.007-22.658,1.49-45.1,3.88-67.623c1.24-11.682,1.663-29.248,8.793-39.072c8.289-11.421,28.156-12.572,41.129-13.308
	c57.657-3.269,115.176-5.379,172.951-5.814c48.599-0.366,96.959,2.885,145.587,1.325c23.126,1.102,48.733-1.096,70.669,6.616
	c5.307,1.866,13.035,4.88,16.101,10.138c2.751,4.718,2.69,11.328,2.968,16.57c0.697,13.099,1.311,26.167,2.088,39.25
	c1.547,26.083-1.443,52.441-1.541,78.542c-0.032,8.588-0.335,17.14-0.794,25.678c-17.281-1.002-34.744-0.163-52.059-0.386
	c-9.854-0.127-19.646-0.579-29.507-0.59c-6.029-0.007-14.837-1.442-20.751,0.521c-7.604,2.523-9.626,14.958-8.667,22.987
	c-4.237-0.409-9.811-1.334-13.587,0.622c-6.576,3.405-4.87,13.19-2.104,18.981c2.177,4.557,5.61,5.953,9.538,6.018
	c-2.916,6.828,0.507,17.204,0.691,23.665c0.065,2.279,0.188,4.545,0.296,6.814c-0.802-0.018-1.604-0.031-2.406-0.058
	c-38.585-1.286-77.201-1.112-115.807-1.63c-19.098-0.256-38.092-2.703-57.189-2.77c-21.065-0.075-42.131,0.139-63.196,0.192
	c-18.768,0.047-37.518,0.001-56.259,1.098c-16.205,0.948-32.651,3.582-48.906,3.154C10.37,282.043,11.113,260.706,10.933,239.787z
	 M329.563,432.547c3.18,0.959,10.366,2.997,10.2,7.518c-0.045,1.214-0.815,2.271-1.618,3.183c-5.331,6.053-9.689,4.985-17.122,4.991
	c-31.103,0.024-62.153,0.411-93.255,0.433c-15.359,0.011-30.678,0.063-46.025,0.515c-11.147,0.328-30.199,2.848-40.12-3.041
	c-11.66-6.921,2.824-12.817,9.539-13.63c15.499-1.875,31.167,0.759,46.491,2.93c14.865,2.106,29.821,2.17,44.811,1.911
	c11.74-0.203,23.552,0.243,35.261-0.457C294.677,435.887,312.453,428.131,329.563,432.547z M174.478,373.209
	c34.124,0.483,68.247,1.012,102.386,1.3c8.915,0.075,17.85,0.059,26.791,0.036c0.187,6.535,0.675,13.112,0.791,19.64
	c0.218,12.198,2.673,24.615-11.21,29.712c-15.733,5.777-35.929,3.216-52.576,3.442c-17.413,0.237-35.768,0.684-52.704-3.894
	c-8.034-2.172-10.588-3.383-11.853-11.654c-0.54-3.535-0.469-7.146-0.568-10.71C175.276,391.798,175.28,382.468,174.478,373.209z
	 M309.685,364.553c-0.854-0.214-1.763-0.205-2.617,0.026c-3.67,0.054-7.337,0.133-11.001,0.265
	c-51.391,1.863-103.183-1.893-154.615-1.863c-26.431,0.015-52.86-0.725-79.266-1.831c-12.255-0.513-27.061-1.271-38.231-7.007
	c-13.674-7.021-11.551-24.166-12.386-37.434c-0.135-2.145-0.225-4.301-0.323-6.455c14.737,1.443,30.018-1.286,44.715-2.091
	c18.645-1.022,37.263-1.09,55.931-1.043c21.083,0.053,42.166-0.045,63.249,0.018c19.854,0.059,39.559,2.445,59.4,2.868
	c39.271,0.837,78.541,0.475,117.795,1.852c0.965,0.034,1.929,0.052,2.893,0.074c0.129,1.995,0.246,3.992,0.388,5.986
	c-0.19,12.962-0.163,25.934,0.406,38.973c0.117,2.686,0.194,5.372,0.271,8.057C340.764,364.761,325.208,364.39,309.685,364.553z
	 M481.079,437.394c-1.192,5.089-2.568,10.102-4.34,15.02c-2.308,6.405-3.527,8.634-10.242,9.426
	c-8.537,1.007-17.793,1.974-26.385,1.872c-10.363-0.124-21.793-0.246-32.058-1.702c-8.108-1.15-17.011-1.754-24.863-4.083
	c-8.325-2.47-13.5-7.437-14.361-16.176c-0.612-6.2-0.627-12.33-0.61-18.551c0.016-5.524-0.068-11.064-0.199-16.609
	c5.573,0.966,11.458,0.881,17.053,0.964c13.326,0.199,26.654,0.179,39.98,0.223c12.485,0.041,24.953,0.575,37.433,0.609
	c7.5,0.021,15.548,0.739,23.28,0.474C484.802,418.463,483.283,427.984,481.079,437.394z M486.454,401.101
	c-7.931,0.307-16.278-0.416-23.966-0.435c-12.484-0.031-24.945-0.536-37.433-0.495c-19.067,0.063-38.166,0.14-57.206,0.149
	c-0.592-18.708-1.798-37.476-2.844-56.078c-0.069-1.224-0.118-2.449-0.181-3.673c2.551,0.124,5.289-0.272,6.811-0.342
	c14.592-0.673,29.191-1.375,43.796-1.409c15.083-0.035,30.193,0.568,45.249-0.378c9.41-0.591,19.306-0.209,28.739-1.373
	c0.004,1.258,0.021,2.514,0.007,3.776C489.206,361,487.931,381.004,486.454,401.101z M489.747,312.775
	c-0.449,5.584-0.436,11.134-0.377,16.692c-21.02-0.461-42.346,1.904-63.387,1.999c-11.427,0.052-22.882,0.208-34.296,0.59
	c-6.63,0.222-13.455,0.889-20.051,1.616c-1.353,0.149-4.861,0.245-7.107,0.868c-0.51-11.442-0.868-22.876-1.602-34.284
	c0.009-1.325,0.009-2.65-0.028-3.978c-0.123-4.423-1.934-10.954-0.64-15.132c2.585-8.343,19.072-5.609,26.647-5.156
	c10.481,0.626,21.013,0.91,31.501,1.42c9.301,0.452,18.586-0.069,27.887,0.562c7.475,0.508,16.048,0.715,24.089,1.832
	c0.014,0.002,0.021,0.01,0.034,0.012c0.112,0.016,0.224,0.026,0.335,0.041c3.736,0.534,7.363,1.25,10.684,2.325
	C496.324,286.354,490.58,302.413,489.747,312.775z M504.657,270.66c-0.615,1.399-1.755,2.34-3.26,2.932
	c-7.68,3.02-24.878-3.03-30.46-3.602c-13.164-1.351-26.197-2.798-39.445-2.656c-13.479,0.144-27.121-0.649-40.594-1.223
	c-6.416-0.273-17.758-2.179-26.405-0.602c-4.612,0.841-12.052,1.989-14.349-2.843c-6.495-13.661,19.787-8.103,24.992-8.142
	c18.36-0.139,36.701,0.606,55.035,1.413c18.255,0.804,36.55,0.36,54.791,1.22C490.77,257.43,509.419,259.82,504.657,270.66z"/>
<path d="M420.708,352.573c-11.019,4.543-17.314,16.628-12.978,28.514c4.393,12.041,19.837,17.746,30.851,10.771
	c10.22-6.472,15.43-21.745,9.44-32.733C442.932,349.793,429.553,347.259,420.708,352.573z M437.066,384.566
	c-7.882,6.337-19.419,4.095-23.411-5.552c-3.103-7.5-0.31-15.112,5.331-19.981c7.475-3.307,18.867-4.943,23.328,3.429
	C446.012,369.402,442.949,379.836,437.066,384.566z"/>
<path d="M98.576,181.707c15.227,0.406,35.729,3.098,48.972-6.27c5.176-3.661,6.448-9.215,6.086-15.127
	c10.217,6.115,29.516,18.352,42.06,15.276c12.944-3.174,13.462-20.508,13.746-31.19c0.407-15.227,3.098-35.729-6.27-48.972
	c-7.504-10.608-22.943-4.875-33.175-2.103c-12.267,3.323-23.526,8.661-34.681,14.417c-1.141-2.213-2.292-4.423-3.455-6.635
	c-4.727-8.991-13.29-22.96-23.853-12.988c-10.99,10.375-17.445,24.547-25.099,37.377c-6.029,10.108-18.637,29.762-15.521,42.469
	C70.56,180.905,87.894,181.423,98.576,181.707z M138.648,114.08c9.089-4.294,17.448-8.987,27.117-12.209
	c13.266-4.422,31.406-10.887,35.549,8.011c2.516,11.478,1.569,24.254,1.148,35.976c-0.175,4.879-0.401,10.614-2.184,15.258
	c-4.12,10.732-11.942,7.447-20.022,4.509c-9.986-3.63-18.873-8.826-28.024-13.881c-0.815-3.374-1.809-6.633-2.581-9.482
	c-2.675-9.874-6.663-19.092-11.114-28.131C138.574,114.114,138.612,114.097,138.648,114.08z M144.06,147.43
	c-8.678-4.179-28.091-13.138-23.782-21.822c1.107-2.231,4.501-4.222,6.46-5.495c1.672-1.087,3.431-2.017,5.218-2.895
	c3.351,6.78,6.678,13.415,9.144,20.814C142.088,140.992,143.174,144.195,144.06,147.43z M77.346,152.524
	c4.357-11.984,10.969-22.38,16.886-33.554c3.294-6.222,13.389-31.258,23.132-26.423c2.231,1.107,4.222,4.501,5.495,6.46
	c2.434,3.744,4.14,7.901,6.033,11.909c0.021,0.045,0.043,0.089,0.064,0.134c-0.042,0.022-0.084,0.044-0.126,0.066
	c-5.921,3.113-20.461,11.026-16.289,19.577c0.78,1.598,2.457,2.904,4.242,4.126c6.949,8.905,18.565,15.23,28.922,20.97
	c0.796,8.195-1.591,15.376-12.614,17.792c-11.478,2.516-24.254,1.569-35.976,1.148c-4.879-0.175-10.613-0.401-15.258-2.184
	C71.124,168.426,74.409,160.604,77.346,152.524z"/>
<path d="M75.037,195.98c-2.678,0.102-2.682,4.062,0,4.164c44.937,1.705,91.076,2.634,135.991,0.361c3.142-0.159,3.147-4.727,0-4.886
	C166.113,193.346,119.974,194.275,75.037,195.98z"/>
<path d="M211.028,212.687c-44.915-2.273-91.054-1.344-135.991,0.361c-2.678,0.102-2.682,4.062,0,4.164
	c44.937,1.706,91.076,2.634,135.991,0.361C214.17,217.414,214.175,212.846,211.028,212.687z"/>
<path d="M211.028,229.754c-44.915-2.273-91.054-1.344-135.991,0.361c-2.678,0.102-2.682,4.062,0,4.164
	c44.937,1.705,91.076,2.634,135.991,0.361C214.17,234.482,214.175,229.914,211.028,229.754z"/>
<path d="M211.028,246.822c-44.915-2.273-91.054-1.344-135.991,0.361c-2.678,0.102-2.682,4.062,0,4.164
	c44.937,1.705,91.076,2.634,135.991,0.361C214.17,251.549,214.175,246.981,211.028,246.822z"/>
<path d="M211.028,263.89c-44.915-2.273-91.054-1.344-135.991,0.361c-2.678,0.102-2.682,4.062,0,4.164
	c44.937,1.706,91.076,2.634,135.991,0.361C214.17,268.617,214.175,264.049,211.028,263.89z"/>
<path d="M248.933,161.263c0.725,5.461-0.295,19.849,8.322,19.67c5.874-0.126,11.205-6.184,14.97-10.055
	c0.698,0.255,1.129,0.771,1.484,1.436c2.82,5.296,8.17,10.079,11.968,14.642c2.653,3.189,6.564,11.165,11.885,7.788
	c2.533-1.607,4.643-5.058,6.776-7.223c2.803-2.845,5.653-5.656,8.192-8.745c2.856-3.475,5.057-6.416,3.542-10.91
	c-1.769-5.249-7.939-9.942-12.202-13.055c-0.508-0.371-3.354-2.014-3.557-2.496c-1.709-0.495-1.855-0.696-0.436-0.605
	c1.008-1.364,1.9-2.801,2.675-4.313c5.446-9.517,4.096-14.715-6.48-18.738c-7.176-2.729-14.934-3.268-22.295-5.361
	c-7.482-2.127-14.51-5.637-22.176-7.166c-9.324-1.854-4.933,17.428-4.685,21.251C247.559,147.276,248.703,159.531,248.933,161.263z
	 M251.41,123.063c2.426-1.714,19.15,6.501,22.237,7.313c6.296,1.656,16.775,1.456,22.02,5.599
	c6.324,4.994-2.441,10.911-3.735,16.609c-0.26,1.145-0.06,2.568,0.893,3.378c3.895,3.312,8.792,5.006,12.389,8.983
	c5.301,5.862,3.824,7.919-1.324,13.003c-2.45,2.42-5.376,6.632-8.221,8.357c-0.448,0.272-0.774,0.496-1.01,0.681
	c-0.1-0.133-0.275-0.277-0.575-0.427c-2.603-1.295-5.996-6.926-7.88-9.18c-3.409-4.08-6.904-10.6-11.573-13.505
	c-1.005-0.625-2.316-0.568-3.325,0c-3.794,2.136-7.045,7.109-11.182,8.356c-3.848,1.16-1.92,2.432-3.399-2.219
	c-1.155-3.632-1.399-10.197-1.866-13.406c-1.479-10.161-1.734-21.071-4.218-31.121C250.699,124.282,250.925,123.406,251.41,123.063z
	"/>
<path d="M383.907,211.479c5.173,2.304,10.809,2.008,16.32,2.082c5.609,0.076,12.016,1.83,17.305-0.748
	c10.618-5.176,10.67-21.396,11.453-31.393c1.315-16.798-0.458-33.238-0.439-50.031c0.017-14.196,1.481-31.016-2.747-44.71
	c-3.573-11.572-15.858-13.363-26.648-14.473c-13.606-1.399-23.285,0.426-24.411,15.025c-0.312,4.045-0.583,8.247-0.793,12.51
	c-0.059,0.243-0.073,0.484-0.034,0.726c-0.465,9.859-0.55,20.052,0.252,29.606c-1.294,17.688-2.303,35.39-2.041,53.242
	C372.279,194.049,372.651,206.465,383.907,211.479z M383.467,81.256c5.466-6.46,17.342-2.628,24.35-0.821
	c9.55,2.463,12.086,7.761,13.018,16.352c-6.358-1.745-14.409,0.779-20.838,0.445c-5.888-0.306-12.866-1.229-19.119-0.341
	C380.494,91.362,379.948,85.416,383.467,81.256z M381.029,102.664c0.001-0.018,0-0.037,0.002-0.055
	c5.81,0.308,11.773-0.056,17.514,0.285c7.616,0.453,15.092-0.487,22.651-0.914c0.306,6.205,0.2,12.453,0.397,18.666
	c-6.768-1.201-15.043,0.167-21.77,0.21c-6.648,0.043-13.285,0.09-19.933,0.292C380.158,114.981,380.658,108.825,381.029,102.664z
	 M379.702,129.137c-0.004-1.216,0.041-2.43,0.067-3.645c5.764,0.59,11.059,1.104,17.053,0.909
	c7.771-0.254,17.293-1.055,25.006-0.073c0.297,6.302,0.633,12.669,0.894,19.031c-0.036-0.014-0.058-0.039-0.095-0.052
	c-5.189-1.803-10.779-0.444-16.196-0.276c-9.038,0.28-17.985,0.799-26.97,1.634C379.6,140.823,379.72,134.982,379.702,129.137z
	 M379.354,151.406c13.874,1.032,28.904-0.103,42.542-0.693c0.373-0.016,0.702-0.098,1-0.217c0.168,5.077,0.289,10.144,0.257,15.157
	c-0.013,1.953-0.068,3.927-0.146,5.906c-14.413-0.505-29.776-3.644-43.997-0.044C379.028,164.806,379.185,158.104,379.354,151.406z
	 M378.98,175.004c7.142,1.579,14.923,0.064,22.194,0.558c7.12,0.483,14.356,2.099,21.504,1.694
	c-0.352,4.924-0.889,9.843-1.668,14.619c-1.645,10.083-6.283,15.373-17.338,14.837c-10.293-0.499-21.451,1.775-23.924-11.987
	C378.608,188.38,378.919,181.507,378.98,175.004z"/>
<g>
</g>
<g>
</g>
<g>
</g>
<g>
</g>
<g>
</g>
<g>
</g>
<g>
</g>
<g>
</g>
<g>
</g>
<g>
</g>
<g>
</g>
<g>
</g>
<g>
</g>
<g>
</g>
<g>
</g>
</svg>
