<?xml version="1.0" encoding="iso-8859-1"?>
<!-- Generator: Adobe Illustrator 19.0.0, SVG Export Plug-In . SVG Version: 6.00 Build 0)  -->
<svg version="1.1" id="Capa_1" xmlns="http://www.w3.org/2000/svg" xmlns:xlink="http://www.w3.org/1999/xlink" x="0px" y="0px"
	 viewBox="0 0 512 512" style="enable-background:new 0 0 512 512;" xml:space="preserve">
<path style="fill:#FFCFB4;" d="M236.475,15.462c14.91-3.437,30.27-5.276,45.422-5.777c30.045-0.993,60.565,2.711,88.418,14.02
	s52.936,30.595,68.346,56.406c7.057,11.819,12.012,24.81,15.544,38.114c7.042,26.527,5.688,54.289,0.791,81.146
	c-4.897,26.851-15.873,52.613-32.093,74.583c-9.354,12.67-20.348,24.065-29.609,36.803c-9.26,12.738-16.887,27.277-18.127,42.977
	c-0.605,7.664-2.599,17.784-0.822,25.185c2.15,8.949,5.44,17.777,7.752,26.727c4.911,19.007,8.671,38.495,8.291,58.208
	c-0.052,2.679-0.226,5.507-1.703,7.742c-1.666,2.521-4.643,3.785-7.46,4.876c-34.051,13.191-69.943,21.116-106.053,26.546
	c-8.273,1.244-16.659,2.362-25.045,1.967c-3.851-0.182-7.629-1.032-11.441-1.127c-4.036-0.101-7.741,0.583-11.552-1.292
	c-4.486-2.207-7.142-6.864-9.516-11.264c-5.969-11.064-6.928-20.35-7.785-32.593c-0.594-8.487-1.188-16.973-1.783-25.46
	c-0.389-5.549-0.797-11.193-2.783-16.39c-1.986-5.196-5.818-9.974-11.099-11.726c-3.495-1.159-7.278-0.913-10.951-0.654
	c-12.217,0.861-24.433,1.723-36.65,2.584c-10.44,0.736-21.592,1.319-30.663-3.901c-6.355-3.657-10.938-9.817-14.176-16.396
	c-10.761-21.867-7.892-47.658-5.133-71.873c0.679-5.961,1.324-12.101-0.305-17.875c-1.443-5.116-4.896-9.55-9.901-11.504
	c-4.282-1.672-8.291-4.082-12.684-5.728c-7.282-2.728-14.52-5.518-19.837-11.48c-1.616-1.812-3.057-4.172-2.501-6.535
	c0.262-1.112,0.941-2.074,1.614-2.997c11.044-15.13,28.011-25.759,37.125-41.968c9.936-17.671,10.294-38.896,14.176-58.794
	c2.558-13.11,7.637-25.325,12.286-37.776c1.85-4.953,2.318-9.371,5.252-13.875c4.004-6.145,8.229-12.159,12.34-18.234
	c6.527-9.645,13.082-19.326,20.897-27.959C176.266,36.741,205.393,22.628,236.475,15.462z"/>
<path style="fill:#F4F4F4;" d="M275.047,169.544c-1.14,0.192-2.275,0.374-3.404,0.544c-8.362,1.259-16.764,2.52-25.22,2.476
	c-10.985-0.058-21.868-2.354-32.866-1.932c-4.451,0.171-7.851,1.54-12.015,2.442c-4.645,1.005-10.103-0.055-14.804-0.421
	c-2.738-0.213-5.546-0.476-8.01-1.689c-5.269-2.594-10.913-10.822-9.939-16.906c0.779-4.863,5.812-7.756,10.473-9.345
	c4.445-1.515,9.547-3.145,14.043-4.141c1.903-0.422,16.809,1.752,16.977,1.158c1.958-6.925,6.181-12.953,10.332-18.833
	c3.093-4.38,6.285-8.86,10.728-11.861c4.622-3.121,10.213-4.385,15.659-5.588c6.774-1.496,13.982-2.971,20.511-0.628
	c4.501,1.615,8.176,4.881,12.147,7.545c-1.528-1.025,4.728-27.071,5.408-30.031c1.531-6.659,10.004-15.961,15.378-19.983
	c6.832-5.114,21.793-5.189,29.961-4.57c8.458,0.641,16.962,3.515,23.17,9.294c10.778,10.034,12.548,26.155,14.164,40.792
	c0.337,3.055,0.697,6.108,1.079,9.158c0.104,0.832,0.239,1.725,0.821,2.327c0.693,0.717,1.797,0.8,2.794,0.82
	c4.064,0.08,8.135-0.148,12.165-0.68c4.007-0.529,8.046-1.36,12.055-0.847c7.055,0.903,13.193,6.131,15.94,12.692
	c2.747,6.561,2.304,14.216-0.439,20.779c-0.736,1.761-1.676,3.513-3.189,4.677c-1.474,1.134-3.342,1.598-5.15,2.035
	c-17.367,4.193-35.746,8.966-53.767,7.266c-12.922-1.219-25.947-1.448-38.921-1.488
	C299.317,164.569,286.895,167.552,275.047,169.544z"/>
<path style="fill:#FFDC0F;" d="M280.034,237.492c0.332-0.743,0.67-1.54,0.546-2.344c-0.271-1.764-2.415-2.435-4.174-2.736
	c-11.622-1.991-23.244-3.983-34.866-5.974c-2.081-0.356-4.507-0.982-5.268-2.951c-0.435-1.125-0.176-2.386,0.102-3.56
	c1.008-4.263,1.747-10.239,4.071-13.99c1.974-3.185,5.473-5.909,7.714-9.041c3.272-4.573,6.117-9.545,8.237-14.759
	c1.248-3.069,1.651-7.889,3.9-10.417c2.987-3.358,8.713-2.525,12.763-2.745c6.4-0.348,12.8-0.697,19.2-1.046
	c10.226-0.557,20.513-1.113,30.684,0.093c0.753,0.089,1.566,0.217,2.095,0.761c0.766,0.787,0.605,2.065,0.331,3.128
	c-1.566,6.076-5.032,11.453-7.814,17.077c-2.84,5.742-4.995,11.821-6.404,18.07c7.747,1,22.247-1.074,22.891,9.385
	c0.189,3.077-0.693,6.116-1.722,9.022c-3.016,8.515-7.922,16.006-11.928,23.956c-1.537,3.051-4.217,5.333-6.483,7.889
	c-2.816,3.175-9.27,10.941-4.108,14.945c2.171,1.684,7.256,0.848,9.923,1.268c3.111,0.489,7.019,0.37,10.006,1.223
	c6.244,1.782,5.122,8.753,3.411,13.464c-2.263,6.234-3.406,12.822-7.148,18.567c-3.256,5-7.359,9.396-10.737,14.314
	c-3.64,5.299-6.401,11.146-9.757,16.63c-2.594,4.237-5.537,8.249-8.55,12.2c-13.164,17.263-27.72,33.465-43.478,48.397
	c-1.501-7.777,2.641-15.394,6.403-22.364c9.028-16.723,16.684-34.188,22.864-52.159c2.494-7.252,4.774-14.773,4.422-22.434
	c-0.068-1.489-0.321-3.138-1.483-4.073c-0.791-0.637-1.849-0.807-2.854-0.955c-5.236-0.771-10.027-2.289-15.142-3.218
	c-3.383-0.615-8.077-0.67-10.006-4.139c-2.919-5.251,3.111-12.998,5.523-17.363C269.244,260.46,274.863,249.076,280.034,237.492z"/>
<path d="M151.068,196.134c-3.428,4.679-5.186,8.661-11.056,10.813c-7.518,2.757-10.68-2.137-14.809-7.658l0.016,0.118
	c-0.165-0.291-0.347-0.581-0.592-0.878l-0.184-0.223c-3.355-4.075-8.972,0.442-8.124,4.73c1.937,9.798,12.111,18.337,22.443,16.591
	c10.719-1.811,18.651-9.323,21.164-19.757C161.274,194.279,154.231,191.816,151.068,196.134z"/>
<path d="M454.609,96.014c-10.605-29.268-30.902-46.42-56.096-63.044c-11.502-7.589-23.613-15.596-36.566-20.492
	C347.6,7.055,334.662,5.77,319.78,3.077c-22.653-4.099-48.51-4.582-71.621,1.502c-5.906,1.035-11.762,2.337-17.528,3.898
	c-28.424,7.696-53.662,23.717-73.953,44.929c-18.374,19.21-37.03,42.685-47.552,67.261c-5.628,13.147-10.348,26.793-12.833,40.895
	c-2.354,13.356-0.709,28.971-5.834,41.329c-5.206,12.549-15.274,23.048-23.816,33.429c-6.232,7.574-20.065,19.242-21.623,29.602
	c-1.363,9.068,7.229,13.752,14.365,16.781c5.662,2.402,11.749,4.058,17.572,6.065c8.797,3.033,14.249,3.48,14.048,13.879
	c-0.414,21.508-4.407,43.123-2.121,64.664c1.045,9.846,2.96,22.335,8.57,30.848c5.18,7.858,15.147,10.038,23.861,11.433
	c12.959,2.074,27.529,0.745,40.566-0.083c7.227-0.459,14.424-1.769,21.664-1.965c11.647-0.316,15.429,5.484,17.284,15.988
	c2.632,14.903,2.158,30.539,2.836,45.631c0.493,11.006,0.438,23.949,7.89,32.943c15.844,19.122,55.835,5.185,75.775,2.115
	c28.975-4.462,57.442-9.585,85.475-18.263c7.781-2.409,18.33-4.522,22.646-12.465c5.224-9.611,1.047-22.549-1.884-32.18
	c-4.197-13.786-7.016-28.136-10.396-42.153c-3.96-16.428-6.384-36.306-1.113-52.677c9.498-29.499,36.03-52.853,52.63-78.399
	c15.3-23.544,26.965-50.676,30.64-78.642C469.715,156.048,466.038,127.557,454.609,96.014z M455.015,165.487
	c-2.066,30.033-8.491,56.567-23.115,83.092c-13.11,23.782-31.463,44.053-46.948,66.244c-15.389,22.051-19.967,43.261-17.023,69.878
	c1.32,11.926,4.775,23.26,7.501,34.898c1.337,5.706,2.301,11.507,3.743,17.185c1.99,7.842,6.289,16.223,5.847,24.432
	c-0.495,9.19-6.196,9.774-13.861,12.159c-5.238,1.63-10.401,3.478-15.671,5.004c-26.048,7.547-55.494,14.189-82.531,16.447
	c-13.862,1.158-27.53,5.26-41.615,3.467c-18.091-2.304-15.097-24.42-15.876-38.214c-0.691-12.25-0.464-24.44-2.305-36.602
	c-1.231-8.129-3.011-17.719-9.639-23.402c-7.213-6.184-17.614-5.077-26.352-4.262c-12.655,1.18-25.147,1.447-37.821,2.037
	c-14.932,0.695-30.378,0.755-35.443-16.029c-3.498-11.588-3.897-23.484-3.399-35.407c15.076,6.945,35.61,3.689,50.994,0.135
	c3.396-0.784,8.321-1.565,12.316-3.392c0.924,1.993,2.024,3.893,3.516,5.594c4.128,4.708,10.624-1.281,8.195-6.323
	c-3.221-6.68-4.676-13.933-7.901-20.603c-2.383-4.929-10.932-2.649-10.476,2.838c0.508,6.128,3.703,8.422-3.907,9.952
	c-9.577,1.926-18.82,3.513-28.633,4.039c-7.792,0.418-14.812-1.086-22.327-1.131c-0.434-0.003-0.852-0.05-1.261-0.101
	c0.425-6.23,0.943-12.448,1.246-18.613c0.746-15.215,5.167-31.428-11.878-38.297c-5.964-2.403-12.466-4.108-18.537-6.256
	c-3.178-1.124-7.361-1.668-10.041-3.637c-4.399-3.233-3.132-1.296-2.62-6.075c0.492-4.594,8.703-11.104,11.56-14.53
	c4.453-5.337,8.833-10.742,13.219-16.135c7.275-8.95,14.833-18.428,19.069-29.273c4.438-11.367,2.165-25.603,4.031-37.604
	c4.881-31.403,19.827-56.976,38.178-82.265c19.278-26.568,44.411-49.316,75.39-61.114c15.178-5.78,31.322-8.966,47.441-10.604
	c6.878-0.699,14.478-1.649,22.08-2.213c32.902,1.182,66.04,10.3,92.854,26.585c21.475,13.042,43.774,27.725,55.346,50.936
	C449.926,111.532,456.79,139.673,455.015,165.487z"/>
<path d="M403.696,117.544c-4.831-2.027-10.211-3.11-15.432-3.466c-4.452-0.304-10.167,1.736-14.812,2.147
	c0.483-7.144,1.69-13.497-0.314-21.013c-2.348-8.806-5.908-17.419-11.566-24.614c-9.518-12.101-21.987-18.711-37.475-18.539
	c-13.277,0.147-26.779,6.395-34.754,17.076c-4.181,5.6-7.928,11.777-9.575,18.607c-1.335,5.533-0.749,12.092-1.392,17.975
	c-12.849-8.059-32.083-7.508-44.98-0.935c-14.899,7.594-23.673,17.797-22.074,33.253c-14.622-1.582-31.947-2.54-42.53,9.549
	c-10.351,11.825-3.557,24.793,10.902,27.403c23.827,4.3,50.859,0.837,75.494-0.827c-2.953,5.148-5.319,10.967-8.075,15.492
	c-5.61,9.206-11.783,20.507-14.662,30.964c-5.089,18.475,31.663,13.054,40.856,15.063c6.043,1.321,5.024,2.069,1.738,7.942
	c-2.802,5.008-5.42,10.141-8.363,15.066c-4.25,7.112-16.58,20.25-14.318,29.857c1.371,5.82,6.3,6.719,11.51,7.54
	c4.778,0.753,17.059-0.629,20.174,2.719c3.925,4.221-1.193,11.778-2.917,16.6c-5.044,14.107-10.67,28.191-16.952,41.79
	c-5.102,11.045-12.905,22.227-15.582,34.201c-0.892,3.99-1.885,9.086,2.624,11.111c6.29,2.826,13.268-6.284,16.651-10.269
	c16.694-19.661,32.924-39.611,47.095-61.215c6.987-10.651,13.832-21.359,19.856-32.569c3.162-5.885,10.822-15.563,6.286-22.527
	c-1.807-2.774-5.374-4.069-8.343-5.148c-2.132-0.775-19.684-1.743-20.711-3.54c-0.649-1.133,8.679-13.22,9.952-15.184
	c4.194-6.467,8.53-13.001,12.368-19.685c3.89-6.777,9.938-17.667,3.842-24.761c-2.54-2.956-6.599-4.035-10.335-4.541
	c-2.983-0.404-8.223,0.733-12.216,0.584c4.888-9.439,10.391-29.489,21.234-33.596c5.289-2.004,15.184-0.262,20.914-0.527
	c8.019-0.371,16.038-0.759,24.054-1.178c10.856-0.568,24.694,0.464,32.819-8.213c6.22-6.643,7.79-15.626,5.361-24.181
	C417.589,127.278,412.004,121.029,403.696,117.544z M306.15,204.264c-0.936,2.09-0.587,4.399,1.49,5.684
	c5.278,3.265,11.152-0.626,16.444,1.245c12.1,4.276,5.436,13.222,0.855,20.535c-2.543,4.06-4.937,8.198-7.475,12.26
	c-4.312,6.901-23.278,25.9-8.917,31.463c9.367,3.629,26.987-2.876,22.164,12.779c-2.787,9.047-9.549,18.028-14.552,25.94
	c-13.145,20.791-26.835,40.706-43.438,58.937c-2.588,2.842-17.813,19.716-16.361,21.332c-2.636-2.933,13.115-29.206,14.908-33.104
	c4.857-10.56,9.019-21.332,13.347-32.117c3.389-8.444,8.402-18.173,9.57-27.216c2.465-19.087-25.295-6.345-30.896-16.652
	c-3.605-6.633,9.441-21.004,13.049-27.661c3.046-5.618,11.361-15.35,11.379-21.998c0.035-13.297-36.122-7.803-42.592-10.236
	c-5.74-2.158-5.315-2.458-3.008-8.213c2.226-5.549,4.837-10.883,7.325-16.323c2.193-4.793,5.106-8.985,7.699-13.546
	c2.063-3.628,3.734-9.378,6.097-13.691c19.348-0.929,38.705-1.731,58.06-2.55c-0.116,0.658-0.076,1.361,0.096,2.042
	C318.234,183.952,310.671,194.167,306.15,204.264z M406.544,155.77c-9.715,7.113-27.836,5.398-39.788,6.385
	c-25.559,2.111-51.585-0.765-77.316-0.414c-23.649,0.322-47.289,1.596-70.833,3.847c-9.802,0.937-40.673,8.853-43.75-6.697
	c-2.014-10.12,12.604-12.481,19.126-13.542c7.987-1.298,14.569,0.647,22.338,1.524c2.783,0.314,4.577-2.887,3.993-5.241
	c-7.157-28.845,38.837-44.463,57.76-25.882c2.301,2.26,5.743,1.031,6.766-1.786c3.038-8.36,0.394-18.512,3.578-27.269
	c4.753-13.068,15.937-23.214,29.617-25.807c16.487-3.125,31.211,5.26,39.982,18.955c8.525,13.311,7.345,25.348,7.264,40.226
	c-0.008,1.578,1.237,3.602,2.936,3.856c8.816,1.319,17.236-3.16,26.673-0.842C409.194,126.596,421.597,144.747,406.544,155.77z"/>
<g>
</g>
<g>
</g>
<g>
</g>
<g>
</g>
<g>
</g>
<g>
</g>
<g>
</g>
<g>
</g>
<g>
</g>
<g>
</g>
<g>
</g>
<g>
</g>
<g>
</g>
<g>
</g>
<g>
</g>
</svg>
